<svg width="100" height="100" viewBox="0 0 100 100" fill="none" xmlns="http://www.w3.org/2000/svg">
<path fill-rule="evenodd" clip-rule="evenodd" d="M37.2745 53.968H49.472C47.3723 46.8252 45.3044 40.2221 43.2697 33.511C41.2954 40.2459 39.2925 46.8252 37.2745 53.968ZM97.7083 0H1.50008C-0.234602 0 0.0137769 0.377776 0.0137769 2.05158V98.3956C0.0137769 100.068 -0.234602 99.9996 1.37787 99.9996H97.8305C99.4421 99.9996 100 100.068 100 98.3949V2.1738C100 0.377776 99.4429 0 97.7083 0ZM60.5594 75.3965C59.2604 75.3965 57.9566 75.291 56.6639 75.3838C55.7315 75.4537 55.4196 75.0616 55.1713 74.2521C53.9698 70.3386 52.693 66.4267 51.4908 62.514C51.2488 61.7267 50.9028 61.4394 50.0497 61.4498C45.667 61.5006 41.2819 61.4958 36.8984 61.4442C35.9755 61.4331 35.5509 61.6791 35.2875 62.595C34.1718 66.487 32.9513 70.3473 31.8237 74.2354C31.5793 75.0783 31.2079 75.3727 30.3128 75.3497C27.6798 75.2838 25.0429 75.3243 22.1599 75.3243C22.9209 72.9077 23.6113 70.6727 24.3255 68.4474C28.7011 54.7966 33.0918 41.1459 37.4356 27.4864C37.7387 26.5356 38.1601 26.2428 39.1362 26.2642C42.2199 26.3324 45.3059 26.2816 48.3912 26.2642C48.9681 26.2602 49.3617 26.2943 49.5728 26.9499C54.7348 42.9149 59.9151 58.9783 65.0905 74.9418C65.1127 75.014 65.0985 75.3965 65.1104 75.3965H60.5594ZM76.9873 75.3965H67.4648V39.6824H76.9873V75.3965ZM71.9483 34.8642C69.04 34.8602 66.9577 32.8578 66.9379 30.0467C66.9188 27.2435 69.086 25.1586 72.0213 25.1555C74.9796 25.1523 77.0643 27.1689 77.0873 30.0531C77.1079 32.8665 74.9709 34.8689 71.9483 34.8642Z" fill="black"/>
</svg>
