<svg width="100" height="100" viewBox="0 0 100 100" fill="none" xmlns="http://www.w3.org/2000/svg">
<path fill-rule="evenodd" clip-rule="evenodd" d="M39.0841 32.2982C36.1619 31.5627 33.2357 31.7988 30.1476 32.2807C30.1476 37.6921 30.1365 42.958 30.177 48.2247C30.1786 48.4943 30.5825 48.9634 30.8444 48.9992C34.2119 49.4549 37.5611 49.4915 40.7103 47.9535C43.9682 46.3631 45.6278 43.0375 45.1976 39.1331C44.8071 35.5777 42.7063 33.2103 39.0841 32.2982ZM100 50.0688V1.81705C100 0.150295 100.018 0 98.4032 0H1.96746C0.396825 0 0 0.15109 0 1.73833V98.3635C0 99.9682 0.2 99.9706 1.75317 99.9706C33.9397 99.9714 66.2222 99.9634 98.4087 100C99.6571 100.002 99.9921 99.6684 99.9889 98.4422C99.946 82.3177 100 66.1917 100 50.0688ZM43.9302 54.7128C39.5198 56.2889 34.9206 56.3772 30.1587 56.0074V73.9545H21.4286V72.8396C21.4286 57.8141 21.3595 42.7902 21.3175 27.7655C21.3127 26.5179 21.5103 25.9151 22.9135 25.7719C29.5262 25.0944 36.1016 24.3326 42.677 25.8777C49.7452 27.5373 53.8206 32.2195 54.1302 38.6885C54.5135 46.6995 51 52.1864 43.9302 54.7128ZM79.0968 64.8549C78.7603 69.4441 76.1778 72.4571 71.9421 73.9139C66.2738 75.8638 60.6365 75.4113 55.0968 73.2054C54.1897 72.8436 54.0143 72.3855 54.3135 71.4591C54.8587 69.7685 55.2579 68.0302 55.6786 66.4604C58.0206 67.1491 60.2476 68.0087 62.5548 68.4151C64.1841 68.7021 65.9452 68.5336 67.6016 68.2735C69.0865 68.0397 70.1548 67.0298 70.3984 65.433C70.646 63.81 70.1579 62.4041 68.7278 61.5405C67.5913 60.855 66.3389 60.3644 65.1381 59.7894C63.2071 58.8646 61.1492 58.1394 59.3683 56.9823C52.3595 52.4282 54.6413 43.9544 59.3182 40.7632C61.8206 39.0567 64.5897 38.2997 67.554 38.1955C71.0405 38.073 74.3976 38.6758 77.6952 40.2813L75.9532 46.4752C74.5722 45.9854 73.2865 45.3492 71.9294 45.0963C70.319 44.7957 68.6302 44.628 67.0048 44.7608C64.8254 44.9397 63.5492 46.4466 63.5492 48.3153C63.5492 49.4223 63.9683 50.359 64.8897 50.8958C66.2119 51.6664 67.6151 52.3017 69.0056 52.9466C70.5103 53.644 72.0992 54.18 73.5476 54.976C77.4127 57.0992 79.4246 60.3834 79.0968 64.8549Z" fill="black"/>
</svg>
