<svg width="67" height="100" viewBox="0 0 67 100" fill="none" xmlns="http://www.w3.org/2000/svg">
<path d="M50 0C59.2 7.41749e-06 66.667 7.467 66.667 16.667C66.6668 25.8668 59.1999 33.333 50 33.333H33.333V83.333C33.333 92.5329 25.8668 99.9998 16.667 100C7.46699 100 0 92.533 0 83.333C0.000170094 74.1332 7.4671 66.667 16.667 66.667C7.46699 66.667 0 59.2 0 50C2.9025e-06 40.8 7.46699 33.333 16.667 33.333C7.4671 33.333 0.000176673 25.8668 0 16.667C0 7.46699 7.46699 0 16.667 0H50ZM50 33.333C59.2 33.333 66.667 40.8 66.667 50C66.667 59.2 59.2 66.667 50 66.667C40.8 66.667 33.333 59.2 33.333 50C33.333 40.8 40.8 33.333 50 33.333Z" fill="white"/>
</svg>
