<svg width="100" height="100" viewBox="0 0 100 100" fill="none" xmlns="http://www.w3.org/2000/svg">
<path d="M98.1136 45.546L54.4523 1.88578C51.9396 -0.628594 47.8615 -0.628594 45.3447 1.88578L36.2792 10.9531L47.7799 22.4539C50.4535 21.5516 53.5176 22.1569 55.6477 24.287C57.7889 26.4307 58.3894 29.521 57.4649 32.2033L68.549 43.2883C71.2305 42.3638 74.3255 42.9611 76.4659 45.1063C79.4603 48.0984 79.4603 52.9489 76.4659 55.9425C75.7543 56.6545 74.9094 57.2192 73.9795 57.6046C73.0496 57.9899 72.0529 58.1882 71.0463 58.1882C70.0397 58.1882 69.043 57.9899 68.1131 57.6046C67.1832 57.2192 66.3383 56.6545 65.6267 55.9425C64.5576 54.8727 63.8288 53.5106 63.5321 52.0275C63.2353 50.5445 63.3839 49.0068 63.9592 47.608L53.6229 37.2717L53.6213 64.4759C54.3713 64.8452 55.056 65.3343 55.6485 65.924C58.6413 68.9161 58.6413 73.765 55.6485 76.7634C52.6549 79.7555 47.8029 79.7555 44.8124 76.7634C41.8196 73.7658 41.8196 68.9168 44.8124 65.924C45.5294 65.2058 46.3823 64.6376 47.3212 64.2525V36.7963C46.3815 36.4123 45.5284 35.8437 44.8124 35.1241C42.5452 32.8584 41.9994 29.5313 43.1623 26.746L31.824 15.4075L1.88632 45.344C0.678508 46.5522 0 48.1906 0 49.899C0 51.6074 0.678508 53.2458 1.88632 54.454L45.5483 98.1142C48.0627 100.629 52.1392 100.629 54.6575 98.1142L98.1143 54.6568C99.3219 53.4483 100 51.8097 100 50.1012C99.9999 48.3928 99.3213 46.7543 98.1136 45.546Z" fill="black"/>
</svg>
