<svg width="100" height="100" viewBox="0 0 100 100" fill="none" xmlns="http://www.w3.org/2000/svg">
<path fill-rule="evenodd" clip-rule="evenodd" d="M49.9996 0C22.3892 0 0 22.9511 0 51.2659C0 73.9173 14.3264 93.1331 34.1928 99.9127C36.6908 100.388 37.6082 98.8006 37.6082 97.4466C37.6082 96.2241 37.5618 92.1857 37.5403 87.9019C23.6303 91.0031 20.6952 81.8532 20.6952 81.8532C18.4207 75.9276 15.1436 74.352 15.1436 74.352C10.6063 71.1701 15.4856 71.2364 15.4856 71.2364C20.5056 71.5972 23.1501 76.5193 23.1501 76.5193C27.6096 84.355 34.8469 82.0901 37.7001 80.781C38.1488 77.4676 39.4446 75.2052 40.8745 73.9249C29.7689 72.6303 18.0937 68.2336 18.0937 48.59C18.0937 42.9929 20.0477 38.4197 23.2461 34.8287C22.7262 33.5383 21.0148 28.3241 23.7297 21.2626C23.7297 21.2626 27.9275 19.8847 37.4823 26.5175C41.4715 25.3808 45.7496 24.8095 49.9996 24.7899C54.2471 24.8095 58.5277 25.3791 62.5243 26.5158C72.0675 19.8831 76.2604 21.2609 76.2604 21.2609C78.9819 28.3215 77.2705 33.5366 76.7514 34.827C79.9573 38.418 81.8972 42.9912 81.8972 48.5883C81.8972 68.2786 70.2005 72.6133 59.0667 73.8834C60.8609 75.4743 62.4589 78.595 62.4589 83.3771C62.4589 90.2365 62.401 95.7572 62.401 97.4457C62.401 98.81 63.3018 100.409 65.8354 99.9051C85.6902 93.1187 100 73.9088 100 51.2659C99.9992 22.9528 77.6125 0 49.9996 0Z" fill="white"/>
<path d="M18.9371 73.6059C18.827 73.8605 18.4362 73.9369 18.0802 73.7629C17.7159 73.5965 17.513 73.2493 17.6306 72.9938C17.7382 72.7306 18.1298 72.6584 18.4917 72.8342C18.856 73.0014 19.063 73.352 18.9363 73.6067L18.9371 73.6059ZM20.9623 75.9226C20.7247 76.1493 20.2586 76.044 19.9423 75.6849C19.6144 75.3284 19.5531 74.8504 19.7957 74.6203C20.0425 74.3945 20.4945 74.5015 20.8224 74.858C21.1486 75.2197 21.2132 75.6934 20.9632 75.9235L20.9623 75.9226ZM22.9346 78.8744C22.6282 79.0934 22.1265 78.8888 21.8168 78.4329C21.5105 77.9762 21.5105 77.4286 21.8251 77.2105C22.1339 76.9914 22.6282 77.1892 22.9428 77.6409C23.2475 78.1035 23.2475 78.652 22.9346 78.8744ZM25.6346 81.7277C25.3614 82.0375 24.7768 81.9543 24.3496 81.5324C23.9132 81.119 23.7915 80.5307 24.0656 80.2217C24.3438 79.9109 24.9308 79.9975 25.3605 80.4169C25.7969 80.8295 25.9285 81.4187 25.6362 81.7268L25.6346 81.7277ZM29.3605 83.384C29.2388 83.7855 28.6774 83.968 28.1102 83.7965C27.5447 83.6208 27.1746 83.1513 27.2905 82.7456C27.4064 82.3406 27.972 82.1513 28.5424 82.3338C29.1079 82.5087 29.478 82.9756 29.3605 83.384ZM33.4531 83.6904C33.4672 84.1132 32.987 84.463 32.3933 84.4715C31.7947 84.4859 31.3103 84.1429 31.3045 83.7269C31.3045 83.2999 31.7748 82.9544 32.3726 82.9425C32.9663 82.9315 33.454 83.271 33.454 83.6896L33.4531 83.6904ZM37.2601 83.0266C37.3313 83.4383 36.9182 83.8619 36.3278 83.9748C35.7483 84.0852 35.2101 83.8288 35.1356 83.4205C35.0644 82.9977 35.485 82.5741 36.0645 82.4646C36.6557 82.3601 37.1856 82.608 37.2601 83.0266Z" fill="white"/>
</svg>
