<svg width="100" height="100" viewBox="0 0 100 100" fill="none" xmlns="http://www.w3.org/2000/svg">
<path fill-rule="evenodd" clip-rule="evenodd" d="M49.9996 0C22.3892 0 0 22.9511 0 51.2659C0 73.9173 14.3264 93.1331 34.1928 99.9127C36.6908 100.388 37.6082 98.8006 37.6082 97.4466C37.6082 96.2241 37.5618 92.1857 37.5403 87.9019C23.6303 91.0031 20.6952 81.8532 20.6952 81.8532C18.4207 75.9276 15.1436 74.352 15.1436 74.352C10.6063 71.1701 15.4856 71.2364 15.4856 71.2364C20.5056 71.5972 23.1501 76.5193 23.1501 76.5193C27.6096 84.355 34.8469 82.0901 37.7001 80.781C38.1488 77.4676 39.4446 75.2052 40.8745 73.9249C29.7689 72.6303 18.0937 68.2336 18.0937 48.59C18.0937 42.9929 20.0477 38.4197 23.2461 34.8287C22.7262 33.5383 21.0148 28.3241 23.7297 21.2626C23.7297 21.2626 27.9275 19.8847 37.4823 26.5175C41.4715 25.3808 45.7496 24.8095 49.9996 24.7899C54.2471 24.8095 58.5277 25.3791 62.5243 26.5158C72.0675 19.8831 76.2604 21.2609 76.2604 21.2609C78.9819 28.3215 77.2705 33.5366 76.7514 34.827C79.9573 38.418 81.8972 42.9912 81.8972 48.5883C81.8972 68.2786 70.2005 72.6133 59.0667 73.8834C60.8609 75.4743 62.4589 78.595 62.4589 83.3771C62.4589 90.2365 62.401 95.7572 62.401 97.4457C62.401 98.81 63.3018 100.409 65.8354 99.9051C85.6902 93.1187 100 73.9088 100 51.2659C99.9992 22.9528 77.6125 0 49.9996 0Z" fill="black"/>
<path d="M18.9371 73.6057C18.827 73.8604 18.4362 73.9368 18.0802 73.7628C17.7159 73.5964 17.513 73.2492 17.6306 72.9936C17.7382 72.7305 18.1298 72.6583 18.4917 72.834C18.856 73.0013 19.063 73.3519 18.9363 73.6066L18.9371 73.6057ZM20.9623 75.9225C20.7247 76.1492 20.2586 76.0439 19.9423 75.6848C19.6144 75.3282 19.5531 74.8503 19.7957 74.6202C20.0425 74.3944 20.4945 74.5014 20.8224 74.8579C21.1486 75.2196 21.2132 75.6933 20.9632 75.9233L20.9623 75.9225ZM22.9346 78.8743C22.6282 79.0933 22.1265 78.8887 21.8168 78.4328C21.5105 77.9761 21.5105 77.4285 21.8251 77.2103C22.1339 76.9913 22.6282 77.1891 22.9428 77.6408C23.2475 78.1034 23.2475 78.6518 22.9346 78.8743ZM25.6346 81.7276C25.3614 82.0374 24.7768 81.9542 24.3496 81.5323C23.9132 81.1189 23.7915 80.5305 24.0656 80.2215C24.3438 79.9108 24.9308 79.9974 25.3605 80.4168C25.7969 80.8294 25.9285 81.4185 25.6362 81.7267L25.6346 81.7276ZM29.3605 83.3838C29.2388 83.7854 28.6774 83.9679 28.1102 83.7964C27.5447 83.6207 27.1746 83.1512 27.2905 82.7454C27.4064 82.3405 27.972 82.1512 28.5424 82.3337C29.1079 82.5086 29.478 82.9755 29.3605 83.3838ZM33.4531 83.6903C33.4672 84.1131 32.987 84.4628 32.3933 84.4713C31.7947 84.4858 31.3103 84.1428 31.3045 83.7268C31.3045 83.2998 31.7748 82.9543 32.3726 82.9424C32.9663 82.9314 33.454 83.2709 33.454 83.6895L33.4531 83.6903ZM37.2601 83.0264C37.3313 83.4382 36.9182 83.8618 36.3278 83.9747C35.7483 84.0851 35.2101 83.8287 35.1356 83.4203C35.0644 82.9976 35.485 82.5739 36.0645 82.4644C36.6557 82.36 37.1856 82.6079 37.2601 83.0264Z" fill="black"/>
</svg>
