<svg width="100" height="100" viewBox="0 0 100 100" fill="none" xmlns="http://www.w3.org/2000/svg">
<path d="M41.1621 3.66064C46.0429 -1.2201 53.9581 -1.2201 58.8389 3.66064L96.3398 41.1616C101.22 46.0423 101.22 53.9568 96.3398 58.8374C96.0606 59.1166 95.7706 59.3792 95.4727 59.6265L58.6973 95.9058L50.0488 87.4731L40.9072 96.0259L3.65625 58.5308C-1.21881 53.65 -1.21875 45.7467 3.65625 40.8716L40.4951 4.38135C40.7063 4.13462 40.9286 3.89415 41.1621 3.66064ZM30.1396 49.7007L49.7812 70.3579L69.7705 49.9448L49.832 30.0073L30.1396 49.7007Z" fill="white"/>
<path d="M49.7137 100.003C56.4605 100.003 61.9299 94.5334 61.9299 87.7866C61.9299 81.0399 56.4605 75.5706 49.7137 75.5706C42.9669 75.5706 37.4976 81.0399 37.4976 87.7866C37.4976 94.5334 42.9669 100.003 49.7137 100.003Z" fill="#C7C7C7"/>
</svg>
