<svg width="100" height="100" viewBox="0 0 100 100" fill="none" xmlns="http://www.w3.org/2000/svg">
<path d="M41.1621 3.66052C46.0429 -1.22022 53.9581 -1.22022 58.8389 3.66052L96.3398 41.1605C101.22 46.0413 101.221 53.9566 96.3398 58.8373C96.0621 59.1151 95.7729 59.3753 95.4766 59.6215L58.6973 95.9056L50.0488 87.472L40.9072 96.0248L3.65625 58.5306C-1.21885 53.6499 -1.21885 45.7455 3.65625 40.8705L40.4912 4.38513C40.7034 4.13692 40.9273 3.89536 41.1621 3.66052ZM30.1396 49.7006L49.7812 70.3568L69.7705 49.9447L49.833 30.0072L30.1396 49.7006Z" fill="black"/>
<path d="M49.7137 100.002C56.4605 100.002 61.9299 94.5331 61.9299 87.7864C61.9299 81.0396 56.4605 75.5703 49.7137 75.5703C42.9669 75.5703 37.4976 81.0396 37.4976 87.7864C37.4976 94.5331 42.9669 100.002 49.7137 100.002Z" fill="#C7C7C7"/>
</svg>
