<svg width="100" height="100" viewBox="0 0 100 100" fill="none" xmlns="http://www.w3.org/2000/svg">
<path d="M100 100H0V0H100V100ZM44.9717 70.1416C44.9717 75.2842 45.2376 79.9991 44.4014 81.4443C43.033 84.2865 39.4861 83.934 37.8701 83.3828C36.2258 82.5745 35.3897 81.4252 34.4209 79.8008C34.1552 79.3347 33.955 78.9739 33.8877 78.9453L26.2832 83.6016C27.5477 86.1968 29.41 88.4496 31.7959 89.9131C35.3602 92.0523 40.151 92.7088 45.1611 91.5586C48.4219 90.6088 51.2359 88.6412 52.709 85.6465C54.8386 81.7204 54.3815 76.968 54.3623 71.7119C54.4102 63.1366 54.3633 54.5625 54.3633 45.96H45.0098L44.9717 70.1416ZM75.1426 45.3711L72.1973 45.752C69.3742 46.4653 66.6832 47.9479 65.1055 49.9346C60.3721 55.3059 61.7223 64.7056 67.4824 68.5742C73.1573 72.8335 81.4938 73.8032 82.5586 77.7861C83.5943 82.6617 78.9752 84.2403 74.3838 83.6797C71.0001 82.976 69.1175 81.2561 67.083 78.1289C63.3382 80.296 63.3376 80.2955 59.4873 82.5098C60.4003 84.5059 61.3602 85.4094 62.8906 87.1387C70.1343 94.4861 88.2612 94.1257 91.5127 83.0049C91.6445 82.623 92.5202 80.0756 91.8164 76.1494C91.0838 71.5875 88.1085 67.7557 79.2969 64.1826C76.236 62.776 72.8238 61.7687 71.8066 59.4492C71.4456 58.0993 71.3976 57.3386 71.626 56.5215C72.2818 53.8696 75.447 53.0425 77.9561 53.8027C79.5721 54.3443 81.1027 55.5895 82.0254 57.5762C86.3402 54.7822 86.3317 54.8002 89.3447 52.8799C88.2416 51.1697 87.6528 50.3801 86.9307 49.6484C84.3353 46.7497 80.7981 45.2569 75.1426 45.3711Z" fill="white"/>
</svg>
