<svg width="100" height="100" viewBox="0 0 100 100" fill="none" xmlns="http://www.w3.org/2000/svg">
<path d="M96.9754 49.2465C96.9754 43.2249 92.4218 38.1575 86.3087 36.7116L100 0H32.1489L45.8715 36.8274C39.9505 38.39 35.586 43.3689 35.586 49.277C35.586 53.6187 37.9753 57.4687 41.6046 59.8423C40.1732 61.6953 38.516 63.4043 36.6384 65.0248C33.1045 68.0372 29.1853 70.352 24.952 71.8872C21.1313 69.5418 19.4764 65.4013 20.9719 61.6945C26.7983 60.0741 31.0355 55.1233 31.0355 49.3044C31.0355 42.1547 24.6348 36.3624 16.7996 36.3624C8.93466 36.3624 2.53788 42.1821 2.53788 49.3342C2.53788 52.8672 4.12789 56.1082 6.67661 58.423C6.45314 58.8301 6.23124 59.2333 6.00778 59.6678C3.87474 63.665 1.45416 68.1812 0.529065 73.2486C-1.31723 83.3794 1.70732 91.5171 8.99873 96.1194C13.107 98.6973 17.6301 100 22.5018 100C30.873 100 39.3762 96.1774 47.5896 92.4706C53.4496 89.8379 59.4987 87.0854 65.4533 85.7553C67.6512 85.2629 69.9428 84.9725 72.3634 84.6546C77.2647 84.0182 82.3285 83.352 86.8822 80.9487C92.1992 78.1414 95.8285 73.4498 96.8809 68.0654C97.674 63.9241 96.8809 59.7562 94.8416 56.1082C96.2346 54.0925 96.9797 51.6982 96.9754 49.2465ZM90.7677 49.2465C90.7677 53.2703 87.1689 56.5426 82.7434 56.5426C78.318 56.5426 74.7191 53.2703 74.7191 49.2465C74.7191 47.9431 75.1012 46.6991 75.7692 45.6282C76.0232 45.2211 76.3435 44.8179 76.66 44.4696C76.9954 44.1113 77.3693 43.7913 77.7749 43.5153L77.8085 43.4848C78.0617 43.311 78.3484 43.1364 78.6352 42.965C78.6352 42.965 78.6664 42.965 78.6664 42.9344C78.7938 42.8765 78.9219 42.7904 79.0509 42.7324C79.0813 42.7324 79.1118 42.7019 79.1446 42.7019C79.2735 42.6471 79.4321 42.5892 79.59 42.5305C79.7407 42.4778 79.8895 42.4198 80.0361 42.3567C80.0674 42.3567 80.1002 42.3254 80.1307 42.3254C80.2588 42.2988 80.3869 42.24 80.5127 42.2126C80.5463 42.2126 80.6104 42.1821 80.6409 42.1821C80.7995 42.1547 80.9276 42.1242 81.0862 42.096H81.1198L81.5964 42.0075C81.6293 42.0075 81.6902 42.0075 81.7238 41.9801C81.8519 41.9801 81.9777 41.9496 82.1059 41.9496H82.2645C82.4231 41.9496 82.5848 41.9222 82.7739 41.9222H83.1888C83.3138 41.9222 83.4123 41.9222 83.5373 41.9496H83.6013C83.8576 41.9809 84.1108 42.0075 84.3671 42.0662C87.9963 42.7598 90.7677 45.7143 90.7677 49.2465ZM41.0303 5.78915H91.1154L79.6212 36.6231C79.1446 36.7116 78.6657 36.8548 78.1898 36.9989L66.0916 14.5625L53.9591 36.8541C53.4801 36.7108 52.9707 36.6223 52.4636 36.5362L41.0303 5.78915ZM63.7961 46.7257C63.1921 44.0038 61.663 41.5731 59.4987 39.778L66.0916 27.6775L72.7447 40.0379C70.7703 41.833 69.3381 44.1204 68.7646 46.7257H63.7961ZM47.8459 42.1539C48.0045 42.1226 48.1327 42.096 48.2913 42.0655H48.3858C48.514 42.0381 48.6429 42.0381 48.7679 42.0067H48.896C49.0242 42.0067 49.1187 41.9793 49.2468 41.9793H50.4892C50.6142 41.9793 50.7118 42.0067 50.8064 42.0067C50.8705 42.0067 50.9009 42.0067 50.965 42.0381C51.0931 42.0655 51.1877 42.0655 51.3166 42.096C51.3463 42.096 51.3799 42.096 51.444 42.1234C51.6034 42.1539 51.762 42.1813 51.8893 42.2119H51.9206C52.0487 42.2393 52.1768 42.2667 52.3019 42.3254C52.3355 42.3254 52.3659 42.3559 52.43 42.3559C52.5245 42.3833 52.6527 42.4138 52.7472 42.4718C52.7808 42.4718 52.8113 42.4992 52.8449 42.4992C52.9699 42.5579 53.0988 42.5884 53.227 42.6463H53.2574C53.416 42.7011 53.5442 42.7591 53.6723 42.8483H53.7036C53.8309 42.9062 53.9591 42.9916 54.0872 43.0495C54.1185 43.0495 54.1185 43.0808 54.1482 43.0808C54.2763 43.1356 54.3716 43.2241 54.4998 43.282L54.5334 43.3094C54.9146 43.5701 55.2655 43.8605 55.6132 44.151L55.6468 44.1784C55.9648 44.4962 56.282 44.8446 56.5383 45.2211C57.3657 46.3797 57.8446 47.7411 57.8446 49.2175C57.8446 53.2422 54.2458 56.5113 49.8203 56.5113C45.3949 56.5113 41.796 53.2422 41.796 49.2175C41.7632 45.8294 44.3424 42.9642 47.8459 42.1539ZM16.5128 41.9488C20.9391 41.9488 24.5371 45.2211 24.5371 49.2449C24.5371 53.2696 20.9391 56.5411 16.5128 56.5411C12.0873 56.5411 8.48852 53.2696 8.48852 49.2449C8.48852 45.2211 12.0873 41.9488 16.5128 41.9488ZM90.5755 67.0523C89.8762 70.7552 87.358 74.0001 83.6654 75.9384C80.1947 77.764 75.9279 78.3418 71.4383 78.9203C68.988 79.2381 66.4089 79.5865 63.9242 80.1368C57.3016 81.6141 50.9345 84.5098 44.7573 87.2866C36.8611 90.8493 29.408 94.2069 22.5018 94.2069C18.9029 94.2069 15.6862 93.2808 12.6312 91.3417C5.62649 86.9413 5.97419 78.6909 6.80474 74.1739C7.56733 69.945 9.70115 65.9791 11.7397 62.187C11.8647 61.9545 11.9623 61.7525 12.0873 61.52C12.7898 61.7525 13.5219 61.9271 14.2852 62.0429C13.0765 68.1804 16.5128 74.5199 23.2003 77.6482L24.4113 78.2259L25.7154 77.7914C31.2886 75.9964 36.4462 73.0732 40.9999 69.1645C43.579 66.9631 45.7769 64.5903 47.6232 62.0124C48.3553 62.129 49.0882 62.1596 49.8203 62.1596C56.4437 62.1596 62.0138 58.0183 63.607 52.4593H68.9544C70.5476 58.0465 76.1201 62.1588 82.7434 62.1588C85.3867 62.1588 87.8377 61.4934 89.9372 60.3645C90.7677 62.5353 91.0209 64.7923 90.5755 67.0523Z" fill="white"/>
</svg>
