<svg width="100" height="96" viewBox="0 0 100 96" fill="none" xmlns="http://www.w3.org/2000/svg">
<path d="M6.35043 22.5462C-2.5031 35.2264 -1.40092 51.7256 5.36224 65.2002C5.52279 65.5234 5.69137 65.841 5.85754 66.1586L6.17382 66.7658L6.3713 67.1153L6.72371 67.7441C6.93403 68.1129 7.14917 68.4801 7.36912 68.8473L7.73758 69.452C7.98162 69.8448 8.23127 70.2328 8.48655 70.62L8.80604 71.1112C9.15845 71.6351 9.51888 72.1583 9.89136 72.6719L9.92267 72.7119L10.1057 72.9583C10.4276 73.4007 10.7591 73.8374 11.0947 74.2694L11.4672 74.7414C11.7666 75.1166 12.0708 75.4894 12.3807 75.8605L12.7299 76.2765C13.1465 76.7664 13.5709 77.2497 14.003 77.7261L14.0295 77.7525L14.0785 77.8069C14.5032 78.2661 14.9346 78.7192 15.3725 79.166L15.7876 79.5828C16.1271 79.9236 16.4723 80.2587 16.8207 80.5923L17.2437 80.9923C17.7093 81.4299 18.1797 81.8587 18.6598 82.2779L18.6823 82.2955L18.9287 82.505C19.3518 82.8698 19.782 83.2322 20.2155 83.5874L20.7485 84.0106C21.1026 84.2938 21.4606 84.5721 21.821 84.8457L22.3942 85.2801C22.7923 85.5721 23.1929 85.8593 23.5975 86.1401L24.0358 86.4497L24.1562 86.5353C24.5399 86.7984 24.9325 87.052 25.325 87.3056L25.8308 87.6416C26.4328 88.0208 27.0429 88.396 27.6602 88.7584L28.166 89.0423C28.6195 89.3031 29.0763 89.5591 29.5387 89.8095C29.7891 89.9439 30.046 90.0711 30.2981 90.1999C30.6248 90.3703 30.9491 90.5431 31.2814 90.7087L31.5086 90.8183L31.9108 91.0119C32.4253 91.2566 32.9439 91.4974 33.4681 91.7294L33.7972 91.8766C34.3981 92.1386 35.0038 92.3895 35.6139 92.6294L36.0562 92.803C36.6213 93.0198 37.1945 93.2342 37.77 93.4357L37.9852 93.5101C38.6169 93.7301 39.2543 93.9341 39.8965 94.1333L40.3581 94.2709C41.0115 94.4669 41.6578 94.7013 42.3313 94.8253C85.1491 102.607 97.5869 69.1841 97.5869 69.1841C87.1408 82.7458 68.5988 86.3233 51.0307 82.3403C50.3652 82.1907 49.7198 81.9835 49.0704 81.7923L48.5815 81.6443C47.9487 81.451 47.3192 81.247 46.6934 81.0323L46.4341 80.9387C45.876 80.7421 45.321 80.5371 44.7692 80.3235L44.302 80.1404C43.6984 79.9028 43.0979 79.6548 42.5047 79.3956L42.1458 79.2372C41.6377 79.0085 41.1323 78.7741 40.6294 78.534L40.1911 78.3244C39.797 78.1332 39.4069 77.9301 39.0183 77.7301C38.7582 77.5933 38.4933 77.4645 38.2356 77.3221C37.7626 77.0682 37.294 76.8063 36.83 76.5365L36.3556 76.2725C35.7394 75.91 35.1292 75.5375 34.5253 75.155L34.0316 74.827C33.5926 74.5464 33.1583 74.2586 32.7288 73.9638L32.3097 73.6702C31.8961 73.3789 31.4856 73.0831 31.0783 72.7831L30.5333 72.3719C30.159 72.0884 29.7886 71.7999 29.4223 71.5063L28.927 71.1104C28.4604 70.7292 27.999 70.3417 27.543 69.948L27.3913 69.8208C26.9 69.3888 26.4151 68.9495 25.9367 68.5033L25.5265 68.1105C25.1725 67.7745 24.8241 67.4361 24.4813 67.0889L24.0719 66.6818C23.6369 66.2382 23.2092 65.7875 22.7891 65.3298L22.7257 65.2626C22.283 64.7788 21.8492 64.287 21.4245 63.7875L21.0841 63.3843C20.7668 63.0039 20.4545 62.6194 20.1473 62.2308L19.8045 61.8052C19.4372 61.332 19.0768 60.8535 18.7232 60.37C8.9698 47.1115 5.465 28.8259 13.2605 13.809M33.8342 11.8619C27.4306 21.0438 27.779 33.3361 32.7737 43.0468C33.6096 44.6793 34.5558 46.2532 35.6058 47.7578C36.5651 49.1282 37.6288 50.7585 38.9019 51.8592C39.3675 52.3674 39.8466 52.863 40.3388 53.3456L40.7177 53.7176C41.1958 54.182 41.6851 54.6349 42.1852 55.0759L42.2446 55.1271L42.259 55.1415C42.8184 55.6269 43.3898 56.0982 43.9729 56.555L44.3622 56.8574C44.9485 57.3075 45.5462 57.7425 46.1548 58.1622L46.2069 58.2013C46.4767 58.3869 46.7512 58.5597 47.0249 58.7389L47.4127 58.9941C47.8494 59.2733 48.2917 59.5453 48.7412 59.8061L48.9299 59.9149C49.3176 60.1373 49.7101 60.3565 50.1043 60.5692L50.5225 60.786C50.7947 60.9276 51.0668 61.0724 51.3437 61.21L51.4682 61.266C52.0325 61.5428 52.6016 61.81 53.1828 62.062L53.5617 62.2172C54.0265 62.414 54.4961 62.606 54.9665 62.7851L55.5686 63.0051C55.9965 63.1635 56.4259 63.3075 56.8586 63.4523L57.4422 63.6387C58.0579 63.8291 58.6664 64.0699 59.3078 64.1763C92.3675 69.6344 100 44.2684 100 44.2684C93.1204 54.1423 79.7964 58.8541 65.5789 55.1759C64.9504 55.0112 64.3259 54.8314 63.7061 54.6367L63.1434 54.4551C62.7041 54.3135 62.2676 54.1636 61.8341 54.0055L61.2432 53.7864C60.7702 53.6054 60.3003 53.4166 59.8336 53.22L59.4539 53.06C58.8726 52.8079 58.2977 52.5414 57.7296 52.2608C57.4382 52.1192 57.1516 51.9696 56.8643 51.8224L56.3649 51.5665C55.9966 51.3675 55.6319 51.1622 55.2708 50.9505L55.0091 50.8025C54.5619 50.5426 54.12 50.2738 53.6838 49.9961L53.284 49.7305C52.996 49.545 52.7099 49.3564 52.4259 49.165C51.8198 48.7452 51.224 48.3109 50.6389 47.8626L50.2367 47.5466C44.0138 42.6509 39.0801 35.9584 36.7353 28.3707C34.2773 20.5023 34.8071 11.6691 39.0657 4.4998M56.9493 3.87982C53.1748 9.41557 52.8039 16.2905 55.4233 22.4038C58.1856 28.8939 63.845 33.9841 70.4508 36.3991C70.7229 36.4991 70.9959 36.5887 71.2712 36.6823L71.6332 36.7967C72.0226 36.9183 72.4087 37.0599 72.8109 37.1359C91.0654 40.6509 96.0168 27.8011 97.3341 25.9092C92.9976 32.1321 85.7087 33.6257 76.7652 31.4626C76.0588 31.2922 75.2825 31.0378 74.6018 30.797C73.7273 30.4874 72.8696 30.1325 72.0322 29.7338C70.4433 28.9715 68.9343 28.054 67.5272 26.9948C59.5246 20.943 54.5531 9.40037 59.775 0" fill="black"/>
</svg>
