<svg width="100" height="100" viewBox="0 0 100 100" fill="none" xmlns="http://www.w3.org/2000/svg">
<path d="M92.623 0.000366211C94.5517 -0.0150359 96.4087 0.731462 97.79 2.07751C99.1712 3.42356 99.9655 5.26053 100 7.18884V92.7787C99.9741 94.7129 99.1831 96.5584 97.8008 97.9115C96.4185 99.2644 94.5571 100.016 92.623 100H7.37695C5.44562 100.02 3.58467 99.2739 2.20215 97.9252C0.819624 96.5764 0.0280799 94.7343 0 92.8031V7.21326C0.0237796 5.27914 0.814258 3.4337 2.19727 2.08142C3.58026 0.72916 5.44282 -0.0192934 7.37695 0.000366211H92.623ZM14.8037 37.4838V85.2455H29.6475V37.4838H14.8037ZM67.4268 36.3275C60.2054 36.3275 55.3693 40.2873 53.3857 44.0414H53.1885V37.4838H38.959V85.2455H53.7783V61.6478C53.7783 55.3856 55.0739 49.353 62.6885 49.3529C70.3032 49.3529 70.4014 56.4754 70.4014 62.0082V85.2455H85.2461V59.016C85.246 46.1885 82.459 36.2949 67.4268 36.3275ZM22.2295 13.7133C19.9484 13.7133 17.7603 14.6186 16.1465 16.2308C14.5327 17.8431 13.6252 20.0307 13.623 22.3119C13.6215 24.0142 14.1248 25.6788 15.0693 27.0951C16.0141 28.5115 17.3582 29.6163 18.9307 30.2689C20.503 30.9214 22.2335 31.0931 23.9033 30.7621C25.5733 30.4309 27.108 29.6119 28.3125 28.4086C29.517 27.2052 30.3372 25.6711 30.6699 24.0013C31.0026 22.3317 30.8328 20.6007 30.1816 19.0277C29.5305 17.4547 28.4271 16.1104 27.0117 15.1644C25.5962 14.2184 23.932 13.7133 22.2295 13.7133Z" fill="black"/>
</svg>
