<svg width="100" height="100" viewBox="0 0 100 100" fill="none" xmlns="http://www.w3.org/2000/svg">
<path d="M92.623 0.000488281C94.5517 -0.0149135 96.4087 0.731584 97.79 2.07764C99.1713 3.42369 99.9655 5.26062 100 7.18896V92.7788C99.9741 94.713 99.1831 96.5585 97.8008 97.9116C96.4185 99.2645 94.5572 100.016 92.623 100H7.37695C5.44562 100.02 3.58467 99.274 2.20215 97.9253C0.819672 96.5766 0.0280794 94.7344 0 92.8032V7.21338C0.0237799 5.27925 0.814249 3.43383 2.19727 2.08154C3.58025 0.729322 5.44285 -0.0191706 7.37695 0.000488281H92.623ZM14.8037 37.4839V85.2466H29.6475V37.4839H14.8037ZM67.4268 36.3286C60.2055 36.3286 55.3694 40.2874 53.3857 44.0415H53.1885V37.4839H38.959V85.2466H53.7783V61.6479C53.7783 55.3857 55.0739 49.3531 62.6885 49.353C70.3031 49.353 70.4014 56.4755 70.4014 62.0083V85.2466H85.2461V59.0171C85.2461 46.1893 82.4592 36.296 67.4268 36.3286ZM22.2295 13.7134C19.9484 13.7134 17.7603 14.6188 16.1465 16.231C14.5327 17.8432 13.6252 20.0308 13.623 22.312C13.6215 24.0144 14.1248 25.6789 15.0693 27.0952C16.0141 28.5116 17.3582 29.6164 18.9307 30.269C20.503 30.9216 22.2335 31.0933 23.9033 30.7622C25.5734 30.431 27.108 29.612 28.3125 28.4087C29.5169 27.2055 30.3371 25.672 30.6699 24.0024C31.0027 22.3327 30.8328 20.601 30.1816 19.0278C29.5304 17.4549 28.4271 16.1105 27.0117 15.1646C25.5962 14.2186 23.932 13.7134 22.2295 13.7134Z" fill="white"/>
</svg>
