<svg width="32" height="35" viewBox="0 0 32 35" fill="none" xmlns="http://www.w3.org/2000/svg">
<path d="M15.3214 0.0285485C16.7365 -0.0990033 18.0291 0.205704 19.2805 0.845589C23.202 2.84957 26.9889 5.51682 30.9061 7.57324C32.3659 8.57877 32.2383 10.8145 30.5957 11.5472C29.6193 11.983 29.0573 11.7449 28.185 11.2864C24.3634 9.27676 20.6885 6.77746 16.8612 4.75293C14.3981 3.797 12.5167 6.93548 14.5554 8.61775C19.0509 11.4735 23.9793 13.8346 28.467 16.6733C33.1652 19.6453 33.0724 25.6728 28.3955 28.6214C25.3952 30.5127 22.1143 32.1114 19.0927 33.9871C17.0377 34.9919 14.8523 34.9714 12.8079 33.9623C8.84107 32.0044 5.00176 29.1961 1.04057 27.1638C-1.08529 25.6197 0.421946 22.4366 2.89149 23.0453C3.20612 23.1225 3.48035 23.3018 3.76239 23.4506C7.54926 25.4425 11.2057 27.91 14.982 29.9465C17.4919 31.0123 19.4491 27.8632 17.392 26.1193C12.9057 23.2571 7.95671 20.9109 3.48035 18.0637C-1.21143 15.0797 -1.13206 9.06843 3.55193 6.1156C6.55294 4.22429 9.83243 2.62423 12.8547 0.749925C13.625 0.391362 14.4675 0.10508 15.3221 0.0285485H15.3214ZM6.38854 9.87413C4.50077 10.1696 3.93175 12.8929 5.53323 13.9551L24.0367 24.6468C26.6721 25.811 28.5988 22.5181 26.4135 20.7819C20.3399 17.5046 14.459 13.549 8.36771 10.3411C7.66901 9.97334 7.23038 9.74233 6.38854 9.87413Z" fill="white"/>
</svg>
