<svg width="100" height="52" viewBox="0 0 100 52" fill="none" xmlns="http://www.w3.org/2000/svg">
<path d="M40.6498 0C32.3101 2.20164 27.8735 15.0798 34.0787 21.6862L34.1622 22.2339C34.3517 23.7713 34.7106 25.2798 34.9836 26.8164C35.5844 29.8372 36.1593 32.8587 36.7904 35.8788C37.6385 39.7485 38.4584 43.6189 39.8267 47.3556C40.2121 48.3978 40.6506 49.4407 41.3347 50.317C41.7154 50.7567 42.1827 51.2511 42.8396 51.1126C53.0859 43.3028 49.9155 37.2096 49.6408 30.1024L50.3477 30.2878L49.4365 25.915C48.8448 22.6589 48.2144 19.4099 47.5454 16.1688C46.7263 12.3234 45.904 8.48187 44.701 4.74597C44.3461 3.75703 43.9615 2.77357 43.47 1.86365C43.115 1.06796 42.4535 0.410754 41.6905 0H40.6498ZM71.9933 0C63.2542 2.96525 58.4213 11.1999 65.4246 21.8302L65.5104 22.2848C65.5241 22.3125 65.5315 22.343 65.5322 22.374L65.636 22.9373C66.9365 29.9663 68.1558 36.9968 70.0227 43.8967C70.6234 45.819 71.1406 47.7672 72.1564 49.522C72.6494 50.2387 73.2259 51.1964 74.2362 51.0884C83.7484 51.1126 84.1837 39.8713 81.5999 30.5937L81.3206 28.5478C81.2367 28.0524 81.1475 27.5579 81.053 27.0644C80.2846 22.7847 79.4662 18.4738 78.5628 14.216C77.8787 11.063 77.1391 7.87552 76.1241 4.80073C75.7146 3.67801 75.305 2.49582 74.6458 1.45211C74.2362 0.873927 73.7978 0.327038 73.1666 0H71.9949H71.9933ZM0.956447 27.4243C0.626449 27.4243 0.301133 27.479 0 27.5041C0.848008 27.6965 1.64141 28.166 2.35133 28.6855C3.28437 29.5109 3.9982 30.553 4.57082 31.6507C5.53039 33.4604 6.15684 35.4132 6.67953 37.3903C7.6898 41.3398 7.88172 45.5115 9.5239 49.2748C9.85312 49.8514 10.1839 50.4844 10.7557 50.8396C10.9227 50.9491 11.085 51.0892 11.2776 51.0587C31.3006 50.4773 23.8144 36.4397 17.8963 29.3904L17.7356 29.2089C17.2184 28.547 16.5319 27.9978 15.7673 27.6965C15.2166 27.4501 14.6455 27.5033 14.0978 27.4243H0.956447Z" fill="#2E2E2E"/>
<path d="M26.6538 0C26.5164 0 26.379 0.00703454 26.2431 0.036733C25.5583 0.337626 25.0937 0.940191 24.7337 1.54276C24.1066 2.63926 23.6678 3.8483 23.2828 5.02373C22.4887 7.49262 21.8874 10.0451 21.2846 12.5679C20.5451 15.8035 19.8853 19.0914 19.2575 22.3551C18.8733 24.5771 18.3775 26.7998 18.0479 29.0225C17.7746 31.0232 17.3077 32.9958 16.8977 34.9958C16.2418 38.0125 15.5859 41.0589 14.7332 44.0475C14.1858 45.9139 13.6127 47.7763 12.7053 49.5058C12.3739 50.1082 11.9162 50.6319 11.3638 51.0408C12.1868 51.1236 12.9802 51.0392 13.8047 51.0697H25.8581C26.1587 51.0939 26.3805 50.8766 26.5726 50.6844C27.4464 49.8896 27.8845 48.7383 28.3538 47.6676C29.3369 45.0659 29.9982 42.3727 30.6253 39.6881C31.9707 33.8453 33.0374 27.9791 34.0767 22.0832C34.4078 20.3013 34.7631 18.4904 35.148 16.6827C35.9968 12.7024 36.8456 8.72823 38.0794 4.86117C38.5182 3.60133 38.9821 2.31179 39.6973 1.15668C39.9441 0.692443 40.3228 0.337625 40.7374 0.00781557H27.0661C26.9279 0.00781557 26.7912 0 26.6538 0ZM64.9434 0.0257915C62.5461 0.0218838 60.1489 0.0218838 57.7532 0.036733C56.7927 0.363416 56.2735 1.29501 55.8346 2.12032C54.7109 4.45165 54.0792 6.99868 53.5069 9.52149C52.1099 15.308 51.0104 21.1508 49.9696 27.017C49.0958 31.5695 48.2431 36.122 47.1483 40.6213C46.5455 43.0362 45.9419 45.4746 45.0384 47.8052C44.5449 48.9853 44.053 50.2733 43.0363 51.0939C43.283 51.1228 43.5595 51.1228 43.8062 51.1228C48.3805 51.1228 52.9579 51.1533 57.5314 51.1228C58.217 50.793 58.6566 50.0818 59.0408 49.4245C59.8061 47.9685 60.2996 46.4078 60.7642 44.8713C61.5044 42.3735 62.0807 39.8265 62.6289 37.3029C63.6921 32.2668 64.6606 27.2112 65.5337 22.1387C66.466 16.9828 67.478 11.8536 68.9039 6.83612C69.4521 4.99951 69.9987 3.16133 70.931 1.48727C71.2316 0.940192 71.697 0.471269 72.1359 0.036733C69.7386 0.036733 67.3406 0.0289177 64.9434 0.0257915ZM97.9332 27.4234C97.2413 27.4305 96.5487 27.4437 95.8655 27.4312H85.9751C84.8256 27.3765 83.7004 27.9252 82.9305 28.7755C82.4659 29.2139 82.2199 29.8431 81.8646 30.3362C81.4242 30.9435 81.261 31.6797 81.015 32.3659C80.2459 34.8098 79.7524 37.3576 79.3424 39.8804C79.0155 41.8665 78.549 43.827 77.9463 45.7474C77.5066 47.1745 76.9304 48.5719 76.0277 49.752C75.5881 50.3288 75.0118 50.7383 74.3551 51.0408C74.6315 51.0939 74.9337 51.0939 75.2335 51.0939C79.7532 51.0681 84.272 51.1244 88.8205 51.0697C90.2753 49.9193 91.1241 48.1913 91.6722 46.4633C92.4953 43.9936 92.4953 41.3614 92.8763 38.8394C93.2605 36.2619 93.7251 33.6288 95.0417 31.3233C95.8812 29.8879 97.1441 28.7478 98.657 28.0596C99.0967 27.8423 99.5902 27.7321 100 27.4578C99.3169 27.4172 98.6258 27.4172 97.9332 27.4234Z" fill="black"/>
</svg>
