<svg width="100" height="52" viewBox="0 0 100 52" fill="none" xmlns="http://www.w3.org/2000/svg">
<path d="M40.6498 0C32.3101 2.20164 27.8735 15.0798 34.0787 21.6862L34.1622 22.2339C34.3517 23.7713 34.7106 25.2798 34.9836 26.8164C35.5844 29.8372 36.1593 32.8587 36.7904 35.8788C37.6385 39.7485 38.4584 43.6189 39.8267 47.3556C40.2121 48.3978 40.6506 49.4407 41.3347 50.317C41.7154 50.7567 42.1827 51.2511 42.8396 51.1126C53.0859 43.3028 49.9155 37.2096 49.6408 30.1024L50.3477 30.2878L49.4365 25.915C48.8448 22.6589 48.2144 19.4099 47.5454 16.1688C46.7263 12.3234 45.904 8.48187 44.701 4.74597C44.3461 3.75703 43.9615 2.77357 43.47 1.86365C43.115 1.06796 42.4535 0.410754 41.6905 0H40.6498ZM71.9933 0C63.2542 2.96525 58.4213 11.1999 65.4246 21.8302L65.5104 22.2848C65.5241 22.3125 65.5315 22.343 65.5322 22.374L65.636 22.9373C66.9365 29.9663 68.1558 36.9968 70.0227 43.8967C70.6234 45.819 71.1406 47.7672 72.1564 49.522C72.6494 50.2387 73.2259 51.1964 74.2362 51.0884C83.7484 51.1126 84.1837 39.8713 81.5999 30.5937L81.3206 28.5478C81.2367 28.0524 81.1475 27.5579 81.053 27.0644C80.2846 22.7847 79.4662 18.4738 78.5628 14.216C77.8787 11.063 77.1391 7.87552 76.1241 4.80073C75.7146 3.67801 75.305 2.49582 74.6458 1.45211C74.2362 0.873927 73.7978 0.327038 73.1666 0H71.9949H71.9933ZM0.956447 27.4243C0.626449 27.4243 0.301133 27.479 0 27.5041C0.848008 27.6965 1.64141 28.166 2.35133 28.6855C3.28437 29.5109 3.9982 30.553 4.57082 31.6507C5.53039 33.4604 6.15684 35.4132 6.67953 37.3903C7.6898 41.3398 7.88172 45.5115 9.5239 49.2748C9.85312 49.8514 10.1839 50.4844 10.7557 50.8396C10.9227 50.9491 11.085 51.0892 11.2776 51.0587C31.3006 50.4773 23.8144 36.4397 17.8963 29.3904L17.7356 29.2089C17.2184 28.547 16.5319 27.9978 15.7673 27.6965C15.2166 27.4501 14.6455 27.5033 14.0978 27.4243H0.956447Z" fill="#DFDFDF"/>
<path d="M26.6537 0C26.5163 0 26.3788 0.00703454 26.243 0.036733C25.5581 0.337626 25.0935 0.940191 24.7336 1.54276C24.1065 2.63926 23.6677 3.8483 23.2827 5.02373C22.4886 7.49262 21.8873 10.0451 21.2845 12.5679C20.545 15.8035 19.8852 19.0914 19.2574 22.3551C18.8732 24.5771 18.3773 26.7998 18.0478 29.0225C17.7745 31.0232 17.3076 32.9958 16.8976 34.9958C16.2417 38.0125 15.5858 41.0589 14.7331 44.0475C14.1857 45.9139 13.6125 47.7763 12.7052 49.5058C12.3737 50.1082 11.9161 50.6319 11.3636 51.0408C12.1867 51.1236 12.98 51.0392 13.8046 51.0697H25.858C26.1586 51.0939 26.3804 50.8766 26.5725 50.6844C27.4463 49.8896 27.8843 48.7383 28.3536 47.6676C29.3367 45.0659 29.9981 42.3727 30.6252 39.6881C31.9706 33.8453 33.0372 27.9791 34.0766 22.0832C34.4076 20.3013 34.7629 18.4904 35.1479 16.6827C35.9967 12.7024 36.8455 8.72823 38.0793 4.86117C38.5181 3.60133 38.9819 2.31179 39.6972 1.15668C39.944 0.692443 40.3227 0.337625 40.7373 0.00781557H27.066C26.9278 0.00781557 26.7911 0 26.6537 0ZM64.9432 0.0257915C62.546 0.0218838 60.1487 0.0218838 57.7531 0.036733C56.7926 0.363416 56.2733 1.29501 55.8345 2.12032C54.7108 4.45165 54.0791 6.99868 53.5067 9.52149C52.1098 15.308 51.0103 21.1508 49.9694 27.017C49.0957 31.5695 48.243 36.122 47.1482 40.6213C46.5454 43.0362 45.9418 45.4746 45.0383 47.8052C44.5448 48.9853 44.0528 50.2733 43.0362 51.0939C43.2829 51.1228 43.5593 51.1228 43.8061 51.1228C48.3804 51.1228 52.9578 51.1533 57.5313 51.1228C58.2169 50.793 58.6565 50.0818 59.0407 49.4245C59.8059 47.9685 60.2994 46.4078 60.7641 44.8713C61.5043 42.3735 62.0806 39.8265 62.6288 37.3029C63.692 32.2668 64.6604 27.2112 65.5336 22.1387C66.4659 16.9828 67.4779 11.8536 68.9038 6.83612C69.4519 4.99951 69.9985 3.16133 70.9309 1.48727C71.2315 0.940192 71.6969 0.471269 72.1357 0.036733C69.7385 0.036733 67.3405 0.0289177 64.9432 0.0257915ZM97.9331 27.4234C97.2412 27.4305 96.5486 27.4437 95.8653 27.4312H85.975C84.8255 27.3765 83.7003 27.9252 82.9304 28.7755C82.4658 29.2139 82.2198 29.8431 81.8645 30.3362C81.4241 30.9435 81.2609 31.6797 81.0149 32.3659C80.2458 34.8098 79.7523 37.3576 79.3423 39.8804C79.0154 41.8665 78.5488 43.827 77.9461 45.7474C77.5065 47.1745 76.9302 48.5719 76.0276 49.752C75.5879 50.3288 75.0117 50.7383 74.355 51.0408C74.6314 51.0939 74.9336 51.0939 75.2334 51.0939C79.753 51.0681 84.2719 51.1244 88.8204 51.0697C90.2752 49.9193 91.124 48.1913 91.6721 46.4633C92.4951 43.9936 92.4951 41.3614 92.8762 38.8394C93.2604 36.2619 93.725 33.6288 95.0415 31.3233C95.881 29.8879 97.144 28.7478 98.6569 28.0596C99.0965 27.8423 99.5901 27.7321 100 27.4578C99.3168 27.4172 98.6257 27.4172 97.9331 27.4234Z" fill="white"/>
</svg>
