<svg width="100" height="74" viewBox="0 0 100 74" fill="none" xmlns="http://www.w3.org/2000/svg">
<path d="M39.4246 54.8894V48.2989L21.1145 53.4913C21.1145 53.4913 22.4677 45.6302 32.0171 42.9211C34.9134 42.1004 37.3839 42.1059 39.4246 42.4997V15.4693H48.593C47.5951 12.3847 46.6293 10.0097 45.8178 8.36005C44.4765 5.62892 43.1004 7.43927 39.9782 10.0511C37.7786 11.888 32.2209 15.808 23.8567 18.0618C15.4925 20.3174 8.73126 19.7188 5.90924 19.2304C1.90938 18.5401 -0.182803 17.6624 0.0136549 20.7039C0.184408 23.3873 0.823356 27.5478 2.28761 33.0422C5.45481 44.9417 15.924 67.8694 35.7084 62.5403C40.876 61.1476 44.5243 58.3954 47.0525 54.8876H39.4246V54.8894ZM9.87787 33.2056L23.9384 29.5013C23.9384 29.5013 23.529 34.9104 18.2576 36.2993C12.9854 37.6874 9.87787 33.2056 9.87787 33.2056Z" fill="#DFDFDF"/>
<path d="M92.3398 15.7825C88.6852 16.4232 79.9171 17.221 69.0807 14.3173C58.2415 11.4145 51.0506 6.33777 48.201 3.9509C44.1617 0.567963 42.3853 -1.78311 40.6365 1.77333C39.0905 4.91024 37.114 10.0145 35.2008 17.1613C31.055 32.6365 27.9557 65.2927 53.5862 72.1641C79.2102 79.0301 92.8521 49.1978 96.9988 33.7217C98.912 26.5766 99.7511 21.1667 99.9824 17.6782C100.246 13.7261 97.5313 14.8736 92.3408 15.7834L92.3398 15.7825ZM40.8458 28.5853C40.8458 28.5853 44.8851 22.3032 51.7354 24.2504C58.5903 26.1975 59.121 33.7758 59.121 33.7758L40.8458 28.5853ZM57.5677 56.7743C45.5185 53.2445 43.6595 43.6364 43.6595 43.6364L76.0283 52.6863C76.0283 52.6845 69.4947 60.26 57.5677 56.7743ZM69.0118 37.0275C69.0118 37.0275 73.0456 30.75 79.8941 32.7026C86.7426 34.6525 87.2824 42.2309 87.2824 42.2309L69.0118 37.0275Z" fill="white"/>
<path d="M33.0259 50.1139L21.1145 53.4895C21.1145 53.4895 22.4089 46.1187 31.1834 43.1966L24.4387 17.8838L23.8557 18.061C15.4916 20.3166 8.73028 19.718 5.90826 19.2296C1.90841 18.5402 -0.18378 17.6616 0.0126783 20.704C0.183432 23.3874 0.82238 27.547 2.28664 33.0423C5.45384 44.9409 15.923 67.8695 35.7075 62.5404L36.2904 62.3577L33.0259 50.1139ZM9.87873 33.2057L23.9393 29.5014C23.9393 29.5014 23.5298 34.9105 18.2585 36.2994C12.9863 37.6875 9.87873 33.2057 9.87873 33.2057Z" fill="#DFDFDF"/>
<path d="M58.1104 56.9064L57.5651 56.7742C45.516 53.2453 43.657 43.6363 43.657 43.6363L60.3486 48.3017L69.1855 14.3448L69.079 14.3163C58.2398 11.4135 51.0489 6.3368 48.1994 3.94992C44.16 0.566986 42.3837 -1.78409 40.6348 1.77236C39.0907 4.90926 37.1132 10.0135 35.2001 17.1604C31.0543 32.6356 27.955 65.2917 53.5854 72.1631L54.1105 72.2816L58.1104 56.9064ZM40.845 28.5852C40.845 28.5852 44.8844 22.3032 51.7347 24.2503C58.5896 26.1974 59.1202 33.7758 59.1202 33.7758L40.845 28.5852Z" fill="white"/>
</svg>
