<svg width="100" height="74" viewBox="0 0 100 74" fill="none" xmlns="http://www.w3.org/2000/svg">
<path d="M39.4246 54.8895V48.299L21.1145 53.4914C21.1145 53.4914 22.4677 45.6303 32.0171 42.9212C34.9134 42.1005 37.3839 42.106 39.4246 42.4998V15.4694H48.593C47.5951 12.3848 46.6293 10.0099 45.8178 8.36017C44.4765 5.62904 43.1004 7.43939 39.9782 10.0512C37.7786 11.8882 32.2209 15.8081 23.8567 18.0619C15.4925 20.3175 8.73126 19.7189 5.90924 19.2306C1.90938 18.5402 -0.182803 17.6626 0.0136549 20.704C0.184408 23.3874 0.823356 27.5479 2.28761 33.0423C5.45481 44.9418 15.924 67.8695 35.7084 62.5404C40.876 61.1477 44.5243 58.3955 47.0525 54.8877H39.4246V54.8895ZM9.87787 33.2057L23.9384 29.5015C23.9384 29.5015 23.529 34.9105 18.2576 36.2995C12.9854 37.6875 9.87787 33.2057 9.87787 33.2057Z" fill="#2E2E2E"/>
<path d="M92.3401 15.7823C88.6854 16.4231 79.9173 17.2209 69.0809 14.3172C58.2417 11.4144 51.0508 6.33765 48.2013 3.95078C44.1619 0.567841 42.3855 -1.78323 40.6367 1.77321C39.0907 4.91012 37.1142 10.0144 35.2011 17.1612C31.0552 32.6364 27.956 65.2925 53.5864 72.164C79.2104 79.0299 92.8523 49.1977 96.9991 33.7215C98.9123 26.5765 99.7513 21.1666 99.9827 17.6781C100.246 13.7259 97.5315 14.8735 92.341 15.7833L92.3401 15.7823ZM40.846 28.5852C40.846 28.5852 44.8853 22.3031 51.7357 24.2502C58.5906 26.1974 59.1212 33.7757 59.1212 33.7757L40.846 28.5852ZM57.5679 56.7742C45.5188 53.2443 43.6598 43.6362 43.6598 43.6362L76.0285 52.6862C76.0285 52.6843 69.4949 60.2599 57.5679 56.7742ZM69.0121 37.0274C69.0121 37.0274 73.0459 30.7499 79.8944 32.7025C86.7429 34.6524 87.2827 42.2307 87.2827 42.2307L69.0121 37.0274Z" fill="black"/>
<path d="M33.0259 50.1139L21.1145 53.4895C21.1145 53.4895 22.4089 46.1187 31.1834 43.1966L24.4387 17.8838L23.8557 18.061C15.4916 20.3166 8.73028 19.718 5.90826 19.2296C1.90841 18.5402 -0.18378 17.6616 0.0126783 20.704C0.183432 23.3874 0.82238 27.547 2.28664 33.0423C5.45384 44.9409 15.923 67.8695 35.7075 62.5404L36.2904 62.3577L33.0259 50.1139ZM9.87873 33.2057L23.9393 29.5014C23.9393 29.5014 23.5298 34.9105 18.2585 36.2994C12.9863 37.6875 9.87873 33.2057 9.87873 33.2057Z" fill="#2E2E2E"/>
<path d="M58.1104 56.9064L57.5651 56.7742C45.516 53.2453 43.657 43.6363 43.657 43.6363L60.3486 48.3017L69.1855 14.3448L69.079 14.3163C58.2398 11.4135 51.0489 6.3368 48.1994 3.94992C44.16 0.566986 42.3837 -1.78409 40.6348 1.77236C39.0907 4.90926 37.1132 10.0135 35.2001 17.1604C31.0543 32.6356 27.955 65.2917 53.5854 72.1631L54.1105 72.2816L58.1104 56.9064ZM40.845 28.5852C40.845 28.5852 44.8844 22.3032 51.7347 24.2503C58.5896 26.1974 59.1202 33.7758 59.1202 33.7758L40.845 28.5852Z" fill="black"/>
</svg>
