<svg width="100" height="87" viewBox="0 0 100 87" fill="none" xmlns="http://www.w3.org/2000/svg">
<path d="M24.9795 1.25977C27.8768 -0.369969 31.3201 -0.29838 34.7734 0.790039C38.2254 1.87809 41.923 4.04468 45.6416 6.98926C47.0817 8.12961 48.5383 9.39858 50.001 10.7842C51.4634 9.39888 52.9205 8.13038 54.3604 6.99023C58.0788 4.0458 61.7756 1.87903 65.2275 0.791016C68.68 -0.296985 72.1208 -0.369979 75.0176 1.25879C77.9149 2.88858 79.5738 5.83 80.333 9.28809C81.0918 12.7447 81.0139 16.9479 80.2559 21.5576C79.964 23.3322 79.5674 25.184 79.0713 27.0986C81.0178 27.6364 82.8591 28.2273 84.5791 28.8672C89.0482 30.5298 92.8177 32.5618 95.5078 34.9277C98.194 37.2904 99.9993 40.1755 100 43.4775C100 46.7797 98.1936 49.6654 95.5078 52.0283C92.8179 54.3941 89.0478 56.4264 84.5791 58.0889C82.8589 58.7288 81.0171 59.3184 79.0703 59.8564C79.5672 61.7734 79.9647 63.6279 80.2568 65.4043C81.0145 70.0129 81.0895 74.2139 80.3311 77.6699C79.5719 81.1278 77.9136 84.0684 75.0166 85.6982C72.1195 87.3273 68.6785 87.2553 65.2256 86.167C61.7742 85.0791 58.0783 82.9145 54.3604 79.9707C52.9202 78.8303 51.4638 77.5607 50.001 76.1748C48.5378 77.561 47.0811 78.831 45.6406 79.9717C41.9229 82.9154 38.2267 85.0799 34.7754 86.168C31.322 87.2564 27.8788 87.327 24.9814 85.6973C22.0849 84.0674 20.429 81.1284 19.6699 77.6709C18.9113 74.2148 18.9874 70.0141 19.7451 65.4053C20.0372 63.6288 20.4338 61.7744 20.9307 59.8574C18.9835 59.3193 17.1415 58.7289 15.4209 58.0889C10.9522 56.4264 7.18208 54.3941 4.49219 52.0283C1.80635 49.6654 0 46.7797 0 43.4775C0.000732117 40.1755 1.80599 37.2904 4.49219 34.9277C7.18227 32.5618 10.9518 30.5298 15.4209 28.8672C17.1412 28.2272 18.9828 27.6365 20.9297 27.0986C20.4335 25.1837 20.037 23.3315 19.7451 21.5566C18.9871 16.9469 18.9092 12.7437 19.668 9.28711C20.4271 5.8299 22.0832 2.88956 24.9795 1.25977ZM25.1709 60.9062C24.709 62.6915 24.3424 64.41 24.0732 66.0469C23.366 70.3486 23.3502 73.973 23.9551 76.7285C24.5596 79.4817 25.7235 81.1389 27.1924 81.9658C28.662 82.7925 30.7191 82.948 33.4697 82.0811C36.2216 81.2136 39.4359 79.3885 42.9062 76.6406C44.2344 75.5889 45.5852 74.4114 46.9492 73.1201C44.1004 70.116 41.2633 66.6944 38.5273 62.9307C33.7799 62.5034 29.2899 61.8153 25.1709 60.9062ZM74.8301 60.9062C70.7111 61.8153 66.221 62.5034 61.4736 62.9307C58.7377 66.6945 55.9006 70.1159 53.0518 73.1201C54.4156 74.4112 55.7667 75.5881 57.0947 76.6396C60.565 79.3874 63.7794 81.2127 66.5312 82.0801C69.2807 82.9465 71.3353 82.7927 72.8047 81.9668C74.2743 81.1401 75.4412 79.482 76.0459 76.7275C76.6508 73.9719 76.635 70.3478 75.9277 66.0459C75.6586 64.4093 75.2919 62.6912 74.8301 60.9062ZM44.2334 63.3115C46.1387 65.7578 48.0728 68.0147 50.001 70.0586C51.929 68.0148 53.8624 65.7576 55.7676 63.3115C53.8741 63.3948 51.9495 63.4395 50 63.4395C48.0508 63.4395 46.1265 63.3948 44.2334 63.3115ZM50 27.8555C46.8769 27.8555 43.8302 27.9685 40.8877 28.1836C39.2399 30.541 37.6298 33.035 36.0811 35.6484C34.5239 38.2762 33.1052 40.8966 31.8281 43.4795C33.1048 46.0617 34.5223 48.6814 36.0791 51.3086C37.6283 53.923 39.2402 56.4171 40.8887 58.7754C43.8309 58.9904 46.8772 59.1045 50 59.1045C53.1232 59.1045 56.1698 58.9895 59.1123 58.7744C60.7605 56.4165 62.3729 53.9235 63.9219 51.3096C65.4788 48.6822 66.8951 46.0618 68.1719 43.4795C66.8948 40.8965 65.4772 38.2754 63.9199 35.6475C62.3715 33.0345 60.7608 30.5416 59.1133 28.1846C56.1705 27.9694 53.1235 27.8555 50 27.8555ZM70.4922 48.4844C69.6155 50.1319 68.6877 51.7862 67.708 53.4395C66.7362 55.0795 65.7374 56.6766 64.7197 58.2285C67.8514 57.8444 70.8294 57.3414 73.6152 56.7363C72.76 54.0834 71.7173 51.3192 70.4922 48.4844ZM29.5088 48.4844C28.2837 51.3191 27.241 54.0835 26.3857 56.7363C29.1716 57.3414 32.1496 57.8444 35.2812 58.2285C34.2635 56.6764 33.265 55.0788 32.293 53.4385C31.3135 51.7855 30.3854 50.1317 29.5088 48.4844ZM22.1377 31.2637C20.291 31.7726 18.5541 32.3298 16.9414 32.9297C12.7567 34.4865 9.52105 36.288 7.37109 38.1787C5.2187 40.0718 4.34838 41.8681 4.34766 43.4775C4.34766 45.0875 5.2178 46.8874 7.37109 48.7812C9.5211 50.6719 12.7569 52.4736 16.9414 54.0303C18.554 54.6302 20.2911 55.1864 22.1377 55.6953C23.3868 51.7846 25.013 47.6747 26.9951 43.4795C25.013 39.2842 23.3866 35.1744 22.1377 31.2637ZM77.8633 31.2646C76.6144 35.1752 74.9878 39.2844 73.0059 43.4795C74.9878 47.6744 76.6143 51.7839 77.8633 55.6943C79.7094 55.1855 81.4463 54.63 83.0586 54.0303C87.2431 52.4736 90.4789 50.6719 92.6289 48.7812C94.7822 46.8874 95.6523 45.0875 95.6523 43.4775C95.6516 41.8681 94.7813 40.0718 92.6289 38.1787C90.479 36.288 87.2433 34.4865 83.0586 32.9297C81.4463 32.3299 79.7095 31.7735 77.8633 31.2646ZM50 34.7949C54.9223 34.795 58.9129 38.6827 58.9131 43.4785C58.9131 48.2745 54.9224 52.163 50 52.1631C45.0775 52.1631 41.0869 48.2745 41.0869 43.4785C41.0871 38.6827 45.0776 34.7949 50 34.7949ZM35.2803 28.7305C32.149 29.1146 29.1713 29.6177 26.3857 30.2227C27.2409 32.8756 28.2837 35.6398 29.5088 38.4746C30.3857 36.8266 31.3141 35.1721 32.2939 33.5186C33.2655 31.879 34.263 30.2818 35.2803 28.7305ZM64.7207 28.7305C65.7378 30.2816 66.7356 31.8783 67.707 33.5176C68.6871 35.1714 69.6151 36.8264 70.4922 38.4746C71.7172 35.6398 72.7601 32.8756 73.6152 30.2227C70.8297 29.6176 67.8519 29.1146 64.7207 28.7305ZM72.8066 4.99121C71.3375 4.16537 69.282 4.01195 66.5332 4.87793C63.7811 5.74536 60.5653 7.57317 57.0947 10.3213C55.7671 11.3726 54.4152 12.5483 53.0518 13.8389C55.9005 16.8427 58.7377 20.2637 61.4736 24.0273C66.2214 24.454 70.7118 25.1413 74.8311 26.0498C75.2922 24.2667 75.6588 22.5501 75.9277 20.915C76.6352 16.6127 76.6528 12.9853 76.0479 10.2295C75.4431 7.47599 74.2759 5.81785 72.8066 4.99121ZM33.4678 4.87695C30.7179 4.01048 28.6608 4.16574 27.1914 4.99219C25.7228 5.81889 24.5588 7.47619 23.9541 10.2285C23.3491 12.9843 23.3658 16.6117 24.0732 20.9141C24.3421 22.5491 24.7078 24.2659 25.1689 26.0488C29.2884 25.1403 33.7793 24.454 38.5273 24.0273C41.2632 20.2638 44.1005 16.8427 46.9492 13.8389C45.5857 12.5481 44.234 11.3718 42.9062 10.3203C39.4357 7.57221 36.2198 5.74438 33.4678 4.87695ZM50 16.9014C48.0721 18.9449 46.1384 21.2017 44.2334 23.6475C46.1265 23.5643 48.0508 23.5205 50 23.5205C51.9495 23.5205 53.8742 23.5643 55.7676 23.6475C53.8624 21.2014 51.9281 18.9451 50 16.9014Z" fill="#2E2E2E"/>
</svg>
