<svg width="100" height="75" viewBox="0 0 100 75" fill="none" xmlns="http://www.w3.org/2000/svg">
<path fill-rule="evenodd" clip-rule="evenodd" d="M0 31.2741C0 31.8356 0.164869 32.2062 0.25726 32.5664C0.859391 34.909 2.15366 36.9193 3.68925 38.7532C5.87636 41.3665 8.55488 43.4703 11.2987 45.4487C13.6786 47.1643 16.107 48.8416 18.4964 50.5444C18.9066 50.8368 19.2945 51.173 19.7397 51.5316C19.3566 51.7393 19.038 51.9222 18.7067 52.0907C15.5535 53.6945 12.5197 55.4924 9.72331 57.6705C8.03798 58.9836 6.4084 60.3789 5.2575 62.2023C3.40571 65.1352 2.75021 68.2597 4.13049 71.5959C4.53351 72.5703 5.14838 73.4122 6.01574 74.0344C6.29689 74.2356 6.61229 74.4353 6.94124 74.5136C7.7839 74.7125 8.6425 74.8427 9.49552 75L11.9112 74.9984C14.5826 74.7596 17.0142 73.8419 19.2117 72.3211C22.646 69.9442 24.9598 66.7574 25.9546 62.6672C26.6778 59.6944 26.7072 56.7184 25.855 53.7592C25.7734 53.4851 25.6794 53.2148 25.5731 52.9494C25.4695 52.6834 25.3477 52.4246 25.2043 52.0931L30.6808 48.9351L30.7629 49.0053C30.6633 49.332 30.5574 49.6579 30.4674 49.9878C29.8167 52.3711 29.3842 54.796 29.5395 57.2695C29.7051 59.9053 30.4387 62.3725 31.9775 64.5745C33.2216 66.3556 36.186 66.4219 37.5082 64.6344C37.9773 63.9994 38.4321 63.3357 38.7738 62.6273C39.6666 60.7783 40.4933 58.8965 41.3464 57.0275L41.4953 56.6857C41.434 57.5707 41.3623 58.3478 41.3296 59.1257C41.2787 60.3406 41.3495 61.5482 41.7637 62.7039C42.1181 63.6927 42.7211 64.4315 43.8505 64.5617C44.623 64.6504 45.2387 64.2958 45.8066 63.8461C46.6864 63.1489 47.4156 62.2796 47.9499 61.291C49.464 58.5027 51.0187 55.7312 52.391 52.8727C53.8756 49.7809 55.1739 46.5988 56.5526 43.4543L56.7804 42.8969C57.1061 44.1804 57.3331 45.4375 57.7512 46.6276C58.2371 48.0086 58.8384 49.3568 59.4931 50.6674C59.803 51.2864 59.7671 51.6882 59.3378 52.2074C57.541 54.3798 55.7752 56.5787 54.0078 58.7751C53.6168 59.2599 53.2273 59.7535 52.9015 60.2831C52.7039 60.6175 52.574 60.9877 52.5192 61.3725C52.4644 61.7268 52.5485 62.0886 52.7539 62.3821C52.9592 62.6755 53.2699 62.8779 53.6208 62.9467C54.3289 63.0997 55.055 63.1516 55.7776 63.1009C58.2443 62.9188 60.4839 62.0506 62.464 60.5794C65.0294 58.6737 65.8529 56.0731 65.2317 52.9909C65.0636 52.1546 64.7666 51.3416 64.4774 50.5357C64.3476 50.1723 64.3388 49.9175 64.5754 49.5788C66.6263 46.642 68.3785 43.5262 70.0081 40.3386C70.0726 40.2132 70.1387 40.0878 70.2518 39.9536C70.7799 42.7092 71.5748 45.3649 72.9989 47.7745C72.2725 48.4766 71.5533 49.1132 70.9026 49.8144C69.4697 51.3591 68.2272 53.0364 67.5789 55.0819C67.3001 55.9637 67.0859 56.8598 67.2101 57.8015C67.4029 59.2639 68.5976 60.2144 70.032 59.8813C73.1016 59.1689 75.7515 57.7184 77.6877 55.149C78.9907 53.419 79.1094 51.4893 78.5638 49.4678C78.4141 48.9183 78.2365 48.3776 78.0453 47.7474C78.8027 47.5118 79.5411 47.229 80.3049 47.0541C84.2705 46.1468 88.1931 46.3049 92.0146 47.741C94.2455 48.5796 96.0479 49.983 97.1168 52.1906C98.4222 54.8894 97.7006 57.4501 95.1638 59.1561C94.9273 59.315 94.6565 59.4404 94.4606 59.6393C94.3978 59.7123 94.3509 59.7975 94.3227 59.8896C94.2946 59.9818 94.286 60.0788 94.2973 60.1744C94.314 60.2727 94.5729 60.3957 94.7218 60.3941C95.5557 60.3877 96.2319 59.9492 96.881 59.4987C98.5074 58.3702 99.6942 56.8518 99.9498 54.8527L100 54.7025L99.9387 53.4006C99.914 53.3255 99.957 53.2513 99.9514 53.1946C99.6057 50.2833 98.055 48.0253 95.7994 46.2554C93.187 44.2067 90.1023 43.3633 86.8399 43.2299C84.1941 43.1157 81.5516 43.5236 79.0624 44.4304C78.348 44.6899 77.6399 44.9974 76.9215 45.2874C76.8251 45.1125 76.7216 44.9447 76.6363 44.7714C75.8988 43.2571 75.0052 41.8098 74.8076 40.0734C74.6675 38.8402 74.4954 37.6086 74.7877 36.389C75.0689 35.2157 75.4353 34.0624 75.7801 32.9051C75.9578 32.3092 75.8327 31.9754 75.2656 31.707C75.068 31.6082 74.8571 31.5388 74.6396 31.5009C73.2458 31.2981 71.8711 31.4139 70.5211 31.8076C70.0432 31.9474 69.6959 32.2158 69.59 32.7461C69.5294 33.0504 69.406 33.3419 69.32 33.6423C68.9671 34.8906 68.717 36.163 68.1468 37.3522C66.7179 40.3354 65.0867 43.206 63.4173 46.0557C63.2365 46.3632 63.0462 46.6651 62.8184 47.0381C62.2322 45.8081 61.607 44.7043 61.4174 43.4104C61.2031 41.9472 61.0343 40.4864 61.3975 39.0343C61.6675 37.9513 62.0203 36.8882 62.3453 35.8195C62.499 35.3115 62.4281 35.0448 61.9694 34.7772C61.7376 34.6422 61.4755 34.5224 61.2143 34.4833C59.7851 34.265 58.3248 34.3848 56.95 34.8331C56.5175 34.9737 56.2905 35.254 56.1583 35.7013C55.7696 37.0208 55.4383 38.3722 54.8927 39.627C52.6833 44.7067 50.4102 49.7601 48.1394 54.8127C47.6655 55.8678 47.1104 56.8862 46.576 57.9133C46.4406 58.1737 46.2431 58.4029 46.0742 58.6473C45.9388 58.4868 45.8862 58.3765 45.887 58.2663C45.891 57.617 45.8138 56.9485 45.9372 56.3207C46.3163 54.422 46.7353 52.5316 47.194 50.6507C47.5684 49.0964 48.004 47.5565 48.419 46.0126C48.5584 45.4958 48.5608 45.0126 48.1904 44.5781C47.5684 43.8505 46.2685 43.6908 45.4976 44.2515L45.1567 44.4447L45.2228 43.8936C45.3853 42.7124 45.4179 41.5351 45.0945 40.3713C44.6915 38.9209 43.6593 38.0862 42.1588 38.1326C41.4595 38.1541 40.7251 38.2739 40.0776 38.5295C37.3544 39.5998 35.2605 41.4951 33.478 43.7754C33.3128 43.9872 33.108 44.1646 32.8751 44.2978C30.5709 45.5789 28.2596 46.844 25.949 48.114L23.3772 49.5269C22.6874 48.8672 22.0606 48.1827 21.3494 47.602C19.1774 45.8257 16.9704 44.0933 14.7833 42.337C12.8447 40.7803 10.9666 39.1589 9.52976 37.0975C8.4609 35.5639 7.77195 33.8859 7.70585 31.9897C7.62222 29.5737 8.30559 27.366 9.53215 25.311C11.1012 22.6816 13.2413 20.5714 15.5941 18.6601C18.0831 16.6394 20.7751 14.9238 23.5652 13.3575C27.4687 11.1667 31.4837 9.22744 35.7886 7.94712C40.2026 6.63404 44.6812 5.88246 49.3007 6.40641C51.1166 6.61248 52.88 7.0294 54.4993 7.91996C55.7394 8.60125 56.7565 9.49341 57.2296 10.8879C57.6963 12.2601 57.682 13.6507 57.3586 15.0444C56.7015 17.867 55.1603 20.1937 53.2209 22.2727C50.0398 25.6808 46.1594 28.001 41.7908 29.5337C39.2789 30.4161 36.6655 30.9752 34.0133 31.1974C31.8397 31.3803 29.7115 31.187 27.6534 30.4291C26.2907 29.9267 25.1039 29.1583 24.1498 28.0433C23.9793 27.8437 23.7611 27.6272 23.4433 27.8141C23.1319 27.9978 23.0769 28.2949 23.1813 28.596C23.3557 29.096 23.5166 29.6168 23.7882 30.0641C24.4707 31.1862 25.4663 32.0001 26.5623 32.6982C28.6673 34.0408 31.0201 34.4921 33.4597 34.5967C37.1617 34.7572 40.7737 34.2029 44.3347 33.207C49.4186 31.7853 53.839 29.2741 57.3841 25.3126C60.3358 22.0139 62.444 18.2911 62.8956 13.796C63.1163 11.602 62.8813 9.45267 61.8571 7.45112C60.746 5.28264 58.9794 3.67005 56.8672 2.55905C53.7912 0.941674 50.4715 0 47.0451 0H43.6123C39.4627 0 35.4509 1.19247 31.5514 2.61496C28.5996 3.69241 25.7053 4.96395 22.8953 6.37127C16.776 9.4375 11.0773 13.1347 6.39645 18.2185C4.06439 20.7512 2.08994 23.5458 0.954171 26.8365C0.611375 27.8189 0.316071 28.8174 0.0692929 29.8284M22.2422 58.5922C21.977 62.1536 20.3673 65.0409 17.7366 67.3796C16.2568 68.6942 14.5595 69.6303 12.5826 69.9594C11.8658 70.0784 11.1323 70.1071 10.4369 69.8092C9.44534 69.3843 9.22312 68.5017 9.20401 67.5617C9.17454 66.0633 9.69782 64.7087 10.4154 63.4196C11.3521 61.7391 12.7252 60.458 14.1915 59.2615C16.5013 57.3758 19.007 55.78 21.5732 54.2736L21.7667 54.1937C22.1634 55.6633 22.3521 57.1146 22.2422 58.5922ZM42.2798 43.1141C42.0926 44.2515 41.8585 45.3896 41.5272 46.4918C40.3818 50.3072 38.9107 54.0044 37.3202 57.6521C37.0263 58.327 36.5986 58.9428 36.2266 59.5826C36.1634 59.6809 36.0876 59.7706 36.0012 59.8494C35.5409 60.3054 35.1044 60.2815 34.8718 59.6848C34.601 58.9916 34.4346 58.2496 34.2912 57.5156C34.1948 57.0227 34.2179 56.5052 34.1877 56.0004C34.2187 52.411 35.3107 49.1491 37.1633 46.1124C37.9271 44.8601 38.7586 43.6668 40.029 42.8745C40.4242 42.6281 40.8518 42.4383 41.2994 42.3106C41.9764 42.1197 42.3921 42.4336 42.2798 43.1141ZM55.9504 60.5802L60.8639 54.8271C61.0685 56.9636 57.447 61.2287 55.9504 60.5802ZM71.6433 56.7089C71.296 56.9085 70.9177 57.0523 70.5617 57.2368C70.2359 57.4061 70.1284 57.2352 70.1188 56.9541C70.114 56.7594 70.139 56.5652 70.1929 56.3782C70.8564 54.0316 72.0774 52.0284 73.8941 50.3991L74.0215 50.3336C74.8857 52.7577 73.8869 55.4197 71.6433 56.7089Z" fill="white"/>
</svg>
