<svg width="89" height="100" viewBox="0 0 89 100" fill="none" xmlns="http://www.w3.org/2000/svg">
<path d="M40.6317 3.24312C41.3508 3.24312 41.7104 3.60281 42.4295 3.9625C38.1147 5.76095 33.7998 10.4369 31.6424 20.5083L23.7318 22.6664C26.2488 15.4726 31.2828 3.24312 40.6317 3.24312ZM44.587 6.84003C45.3061 8.99817 46.0253 11.516 46.0253 15.4726C46.0253 15.8323 46.0253 15.8323 46.0253 16.192L35.5977 19.0695C37.7551 11.516 41.3508 8.27879 44.587 6.84003ZM53.9359 13.3145L49.2614 14.7532C49.2614 14.3935 49.2614 14.0338 49.2614 13.6742C49.2614 10.4369 48.9018 7.9191 48.1827 5.76095C50.6997 6.48033 52.8571 9.71755 53.9359 13.3145ZM77.3081 19.0695C77.3081 18.7098 76.9485 18.3501 76.5889 18.3501C75.8698 18.3501 68.3188 17.6308 68.3188 17.6308C68.3188 17.6308 62.9252 12.2354 62.206 11.8757C61.4869 11.1563 60.4082 11.516 60.0486 11.516C60.0486 11.516 58.9699 11.8757 57.172 12.5951C55.3741 7.55941 52.138 2.88342 46.7444 2.88342H46.3848C44.9465 0.725278 42.7891 0.00589632 40.9913 0.00589632C28.0466 -0.353795 21.9339 15.8323 19.7765 24.1052C16.8999 24.8246 14.0233 25.9037 10.7872 26.9827C7.91059 27.7021 7.91059 28.0618 7.55102 30.5796C7.19145 32.3781 0 89.2093 0 89.2093L57.172 100L88.0952 93.1659C88.0952 93.1659 77.3081 19.7889 77.3081 19.0695Z" fill="white"/>
<path d="M76.2181 18.7089C75.8582 18.7089 68.3001 17.9927 68.3001 17.9927C68.3001 17.9927 62.9014 12.621 62.1816 12.2629C61.8217 11.9048 61.8217 11.9048 61.4618 11.9048L57.1428 100L88.0952 93.1959C88.0952 93.1959 77.2979 20.1413 77.2979 19.4251C77.2979 19.067 76.578 18.7089 76.2181 18.7089Z" fill="#DFDFDF"/>
<path d="M46.6667 35.767L42.7241 47.2385C42.7241 47.2385 39.4982 45.4461 35.1972 45.4461C29.104 45.4461 28.7456 49.031 28.7456 50.1064C28.7456 55.1252 42.3656 57.2761 42.3656 69.4647C42.3656 79.1438 36.2724 85.238 28.0287 85.238C18.3513 85.238 13.3334 79.1438 13.3334 79.1438L15.8423 70.5401C15.8423 70.5401 20.8603 74.8419 25.1613 74.8419C28.0287 74.8419 29.104 72.691 29.104 70.8986C29.104 64.0874 17.9929 63.7289 17.9929 52.6158C17.9929 43.2952 24.8029 34.333 38.0646 34.333C44.1577 33.9746 46.6667 35.767 46.6667 35.767Z" fill="black"/>
</svg>
