<svg width="89" height="100" viewBox="0 0 89 100" fill="none" xmlns="http://www.w3.org/2000/svg">
<path d="M40.6317 3.24312C41.3508 3.24312 41.7104 3.60281 42.4295 3.9625C38.1147 5.76095 33.7998 10.4369 31.6424 20.5083L23.7318 22.6664C26.2488 15.4726 31.2828 3.24312 40.6317 3.24312ZM44.587 6.84003C45.3061 8.99817 46.0253 11.516 46.0253 15.4726C46.0253 15.8323 46.0253 15.8323 46.0253 16.192L35.5977 19.0695C37.7551 11.516 41.3508 8.27879 44.587 6.84003ZM53.9359 13.3145L49.2614 14.7532C49.2614 14.3935 49.2614 14.0338 49.2614 13.6742C49.2614 10.4369 48.9018 7.9191 48.1827 5.76095C50.6997 6.48033 52.8571 9.71755 53.9359 13.3145ZM77.3081 19.0695C77.3081 18.7098 76.9485 18.3501 76.5889 18.3501C75.8698 18.3501 68.3188 17.6308 68.3188 17.6308C68.3188 17.6308 62.9252 12.2354 62.206 11.8757C61.4869 11.1563 60.4082 11.516 60.0486 11.516C60.0486 11.516 58.9699 11.8757 57.172 12.5951C55.3741 7.55941 52.138 2.88342 46.7444 2.88342H46.3848C44.9465 0.725278 42.7891 0.00589632 40.9913 0.00589632C28.0466 -0.353795 21.9339 15.8323 19.7765 24.1052C16.8999 24.8246 14.0233 25.9037 10.7872 26.9827C7.91059 27.7021 7.91059 28.0618 7.55102 30.5796C7.19145 32.3781 0 89.2093 0 89.2093L57.172 100L88.0952 93.1659C88.0952 93.1659 77.3081 19.7889 77.3081 19.0695Z" fill="black"/>
<path d="M76.2184 18.7089C75.8585 18.7089 68.3003 17.9927 68.3003 17.9927C68.3003 17.9927 62.9016 12.621 62.1818 12.2629C61.8219 11.9048 61.8219 11.9048 61.462 11.9048L57.1431 100L88.0954 93.1959C88.0954 93.1959 77.2981 20.1413 77.2981 19.4251C77.2981 19.067 76.5783 18.7089 76.2184 18.7089Z" fill="#2E2E2E"/>
<path d="M46.6668 35.7671L42.7242 47.2387C42.7242 47.2387 39.4984 45.4462 35.1973 45.4462C29.1041 45.4462 28.7457 49.0311 28.7457 50.1065C28.7457 55.1253 42.3658 57.2763 42.3658 69.4648C42.3658 79.1439 36.2726 85.2381 28.0288 85.2381C18.3514 85.2381 13.3335 79.1439 13.3335 79.1439L15.8425 70.5402C15.8425 70.5402 20.8604 74.8421 25.1615 74.8421C28.0288 74.8421 29.1041 72.6911 29.1041 70.8987C29.1041 64.0875 17.993 63.729 17.993 52.6159C17.993 43.2953 24.803 34.3332 38.0647 34.3332C44.1579 33.9747 46.6668 35.7671 46.6668 35.7671Z" fill="white"/>
</svg>
