<svg width="100" height="60" viewBox="0 0 100 60" fill="none" xmlns="http://www.w3.org/2000/svg">
<path d="M50 0C36.6664 0 28.3359 6.66441 25 19.9987C29.9984 13.3335 35.8336 10.8342 42.4984 12.5007C46.3039 13.4491 49.0234 16.2087 52.0352 19.2666C56.9367 24.2411 62.6102 30 75 30C88.3328 30 96.6641 23.3348 100 9.99739C95.0008 16.6665 89.1664 19.1658 82.5008 17.4993C78.6961 16.5501 75.9797 13.7913 72.9641 10.7334C68.0656 5.75889 62.3937 0 50 0ZM25 30C11.6672 30 3.33594 36.6652 0 50.0026C4.99844 43.3335 10.8328 40.8342 17.4984 42.5007C21.3039 43.4499 24.0234 46.2087 27.0352 49.2666C31.9367 54.2411 37.6102 60 50 60C63.3328 60 71.6641 53.3356 75 40.0013C70.0008 46.6665 64.1664 49.1658 57.5008 47.4994C53.6961 46.5509 50.9797 43.7913 47.9641 40.7334C43.0656 35.7589 37.3938 30 25 30Z" fill="black"/>
</svg>
