<svg width="100" height="100" viewBox="0 0 100 100" fill="none" xmlns="http://www.w3.org/2000/svg">
<path d="M0 50V100H100V0H0V50ZM80.584 46C82.9791 46.5558 85.156 47.8085 86.84 49.6C87.7671 50.5652 88.573 51.6398 89.24 52.8C89.24 52.928 84.92 55.848 82.288 57.48C82.192 57.544 81.808 57.128 81.384 56.496C80.9035 55.6669 80.2208 54.9731 79.3997 54.4793C78.5785 53.9855 77.6456 53.7077 76.688 53.672C73.656 53.464 71.704 55.056 71.72 57.672C71.6949 58.3233 71.8441 58.9695 72.152 59.544C72.816 60.928 74.056 61.752 77.944 63.432C85.104 66.512 88.168 68.544 90.072 71.432C92.2 74.632 92.672 79.8 91.232 83.624C89.632 87.784 85.712 90.608 80.168 91.544C77.6359 91.834 75.0775 91.8071 72.552 91.464C68.6813 90.826 65.1159 88.9676 62.376 86.16C61.456 85.144 59.664 82.496 59.776 82.304C60.068 82.0872 60.3755 81.892 60.696 81.72L64.4 79.672L67.272 78.008L67.872 78.896C68.8846 80.3445 70.1732 81.5788 71.664 82.528C74.864 84.208 79.232 83.976 81.392 82.032C82.1172 81.3196 82.5697 80.3755 82.6705 79.364C82.7714 78.3524 82.5143 77.3375 81.944 76.496C81.144 75.384 79.544 74.448 75.072 72.496C69.912 70.272 67.688 68.896 65.656 66.704C64.3875 65.2575 63.4509 63.5509 62.912 61.704C62.51 59.594 62.4506 57.4329 62.736 55.304C63.8 50.32 67.536 46.84 72.992 45.808C75.5187 45.4954 78.0782 45.5655 80.584 46.016V46ZM57.112 50.192V54.288H44.128V91.272H34.92V54.28H21.904V50.28C21.8635 48.9006 21.8955 47.52 22 46.144C22.064 46.072 30 46.072 39.6 46.072H57.064L57.112 50.192Z" fill="white"/>
</svg>
