<svg width="100" height="60" viewBox="0 0 100 60" fill="none" xmlns="http://www.w3.org/2000/svg">
<path d="M90.8672 0C95.8632 0.000164524 100 4.05971 100 9.13379V40.3594C99.9219 45.3554 95.8631 49.4148 90.7891 49.415H61.5928L65.2617 59.6416L47.8535 49.415H9.13379C4.05971 49.415 0.000166763 45.3553 0 40.2812V9.05566C0.000139866 4.05966 4.05969 0 9.13379 0H90.8672ZM46.5264 10.3047C47.7753 3.66979 40.8287 5.54231 40.2031 7.10352C39.5786 8.6648 35.2849 18.6575 34.9727 29.1182C34.9636 29.0935 31.3032 19.1218 30.9912 15.5352C30.679 11.8661 26.8538 10.9295 24.668 14.4424C22.4819 17.9559 15.8467 31.5381 15.8467 31.5381L11.5537 9.36816C11.5537 9.36816 7.25978 3.66946 4.76172 10.6172C4.77717 10.7118 9.21389 37.8651 10.7725 39.7354C10.7876 39.7987 12.974 48.925 17.4082 42.7793C21.8434 36.6323 26.1235 26.9953 26.1514 26.9326C26.1514 26.9326 26.4639 24.5124 27.7129 29.8203C28.9585 35.1141 34.3192 42.2712 34.3486 42.3105C34.3486 42.3105 39.2662 48.4779 41.2959 41.999C40.5153 33.412 43.4819 17.7989 46.5264 10.3047ZM67.916 15.5352C61.2805 4.45002 51.4443 12.8809 51.4443 12.8809C51.4145 12.9155 43.9566 21.5699 47.3066 33.334C52.6928 44.9648 60.2648 39.8131 62.2949 38.876C64.4026 37.8611 73.3023 27.7131 67.916 15.5352ZM92.8184 15.5352C86.1829 4.45002 76.3467 12.8809 76.3467 12.8809C76.3058 12.9283 68.8624 21.5786 72.21 33.334C77.5964 44.965 85.1686 39.8127 87.1982 38.876C89.2286 37.8601 98.2044 27.7124 92.8184 15.5352ZM53.084 24.8242C54.6452 17.2529 58.0794 16.2376 59.875 16.3936C63.2318 18.189 63.076 22.1704 62.8418 25.293C62.8418 29.8985 59.017 34.192 55.8945 33.2559C54.1771 32.241 53.084 29.5081 53.084 24.8242ZM77.9863 24.8242C79.5477 17.2523 82.9829 16.2374 84.7783 16.3936C88.0567 18.1891 87.9003 22.1705 87.7441 25.293C87.7441 29.8986 83.9194 34.1923 80.7969 33.2559C79.0795 32.241 77.9863 29.5081 77.9863 24.8242Z" fill="black"/>
</svg>
