<svg width="100" height="100" viewBox="0 0 100 100" fill="none" xmlns="http://www.w3.org/2000/svg">
<path d="M7.10701 49.9988C7.10701 66.9768 16.9734 81.6492 31.2805 88.6021L10.8205 32.5425C8.4406 37.877 7.10701 43.7804 7.10701 49.9988Z" fill="black"/>
<path d="M78.9541 47.8343C78.9541 42.5332 77.05 38.8621 75.4169 36.0047C73.2427 32.4715 71.2048 29.4794 71.2048 25.9462C71.2048 22.0032 74.1951 18.3329 78.4073 18.3329C78.5974 18.3329 78.7778 18.3566 78.963 18.3672C71.3321 11.3758 61.1653 7.10724 49.9988 7.10724C35.0144 7.10724 21.8311 14.7956 14.1618 26.4408C15.1681 26.471 16.1165 26.4922 16.922 26.4922C21.4084 26.4922 28.353 25.9478 28.353 25.9478C30.6651 25.8115 30.9377 29.2076 28.628 29.481C28.628 29.481 26.3044 29.7544 23.7189 29.8899L39.3383 76.3506L48.7248 48.1983L42.0422 29.8883C39.7325 29.7528 37.5444 29.4794 37.5444 29.4794C35.2331 29.3439 35.5041 25.8099 37.8154 25.9462C37.8154 25.9462 44.8987 26.4905 49.1133 26.4905C53.5988 26.4905 60.5443 25.9462 60.5443 25.9462C62.858 25.8099 63.1298 29.2059 60.8193 29.4794C60.8193 29.4794 58.4908 29.7528 55.9102 29.8883L71.4104 75.9972L75.6887 61.7003C77.543 55.7675 78.9541 51.5063 78.9541 47.8343Z" fill="black"/>
<path d="M50.7513 53.7507L37.8823 91.147C41.7247 92.2765 45.7883 92.8944 49.9988 92.8944C54.9936 92.8944 59.7836 92.0309 64.2422 90.463C64.1271 90.2794 64.0226 90.0843 63.9369 89.8721L50.7513 53.7507Z" fill="black"/>
<path d="M87.6347 29.4198C87.8191 30.7861 87.9236 32.2527 87.9236 33.8304C87.9236 38.183 87.1107 43.076 84.6623 49.194L71.5607 87.0751C84.3122 79.6389 92.889 65.8236 92.889 49.9996C92.8899 42.5422 90.985 35.5297 87.6347 29.4198Z" fill="black"/>
<path d="M49.9988 0C22.4302 0 0 22.4293 0 49.9988C0 77.5716 22.4302 100 49.9988 100C77.5666 100 100 77.5716 100 49.9988C99.9992 22.4293 77.5666 0 49.9988 0ZM49.9988 97.7082C23.6944 97.7082 2.29256 76.3057 2.29256 49.9988C2.29256 23.6935 23.6936 2.29263 49.9988 2.29263C76.3024 2.29263 97.7025 23.6935 97.7025 49.9988C97.7025 76.3057 76.3024 97.7082 49.9988 97.7082Z" fill="black"/>
</svg>
