<?xml version="1.0" encoding="utf-8"?>
<!-- Generator: Adobe Illustrator 25.0.0, SVG Export Plug-In . SVG Version: 6.00 Build 0)  -->
<svg version="1.1" id="Layer_1" xmlns="http://www.w3.org/2000/svg" xmlns:xlink="http://www.w3.org/1999/xlink" x="0px" y="0px"
	 viewBox="0 0 300 300" style="enable-background:new 0 0 300 300;" xml:space="preserve">
<style type="text/css">
	.st0{fill:#888888;}
</style>
<g>
	<g>
		<path class="st0" d="M154.4,185.6c0-22.3-10.6-38.8-32.6-45c16-7.6,24.4-19.2,24.4-37.1c0-35.4-26.5-44.1-57.1-44.1H5v177.9h86.5
			C123.9,237.3,154.4,221.8,154.4,185.6L154.4,185.6z M44.2,89.7H81c14.2,0,26.9,4,26.9,20.3c0,15.1-9.9,21.2-23.9,21.2H44.2V89.7z
			 M44.2,207.1v-49H87c17.3,0,28.2,7.2,28.2,25.4c0,18-13,23.6-29,23.6H44.2z M44.2,207.1"/>
		<path class="st0" d="M232.2,240.6c30.9,0,50.9-13.9,60.5-43.3h-31.3c-3.4,11-17.3,16.8-28.1,16.8c-20.8,0-31.7-12.1-31.7-32.8
			h93.2c2.9-41.3-20.1-76.5-62.6-76.5c-39.4,0-66.1,29.5-66.1,68.2C166,213.1,191.4,240.6,232.2,240.6L232.2,240.6z M231,131.6
			c17.8,0,26.8,10.4,28.3,27.5h-57.8C202.8,142.1,214,131.6,231,131.6L231,131.6z M231,131.6"/>
	</g>
	<rect x="194.3" y="68.7" class="st0" width="72.4" height="17.5"/>
</g>
</svg>
