<?xml version="1.0" encoding="utf-8"?>
<!-- Generator: Adobe Illustrator 25.0.0, SVG Export Plug-In . SVG Version: 6.00 Build 0)  -->
<svg version="1.1" id="Layer_1" xmlns="http://www.w3.org/2000/svg" xmlns:xlink="http://www.w3.org/1999/xlink" x="0px" y="0px"
	 viewBox="0 0 300 300" style="enable-background:new 0 0 300 300;" xml:space="preserve">
<style type="text/css">
	.st0{fill:#888888;}
</style>
<path class="st0" d="M150,10C69.3,10,3.9,74.3,3.9,153.6c0,63.4,41.9,117.2,99.9,136.2c7.3,1.4,10-3.1,10-6.9
	c0-3.4-0.1-12.4-0.2-24.4c-40.6,8.7-49.2-19.3-49.2-19.3c-6.6-16.6-16.3-21-16.3-21c-13.2-8.9,1-8.7,1-8.7
	c14.7,1,22.4,14.8,22.4,14.8c13,21.9,34.2,15.6,42.5,11.9c1.3-9.3,5.1-15.6,9.3-19.2c-32.4-3.6-66.5-15.9-66.5-70.9
	c0-15.7,5.7-28.5,15-38.5c-1.6-3.6-6.6-18.2,1.3-38c0,0,12.2-3.8,40.2,14.7c11.7-3.2,24.1-4.8,36.5-4.8c12.4,0.1,24.8,1.7,36.5,4.8
	c27.8-18.6,40-14.7,40-14.7c7.9,19.8,2.9,34.4,1.5,38c9.3,10,15,22.8,15,38.5c0,55.1-34.1,67.3-66.6,70.8c5.1,4.3,9.9,13.1,9.9,26.6
	c0,19.2-0.2,34.6-0.2,39.3c0,3.8,2.6,8.3,10,6.8c58.4-18.8,100.3-72.7,100.3-136C296.1,74.3,230.7,10,150,10L150,10z M150,10"/>
</svg>
