<?xml version="1.0" encoding="utf-8"?>
<!-- Generator: Adobe Illustrator 25.0.0, SVG Export Plug-In . SVG Version: 6.00 Build 0)  -->
<svg version="1.1" id="Layer_1" xmlns="http://www.w3.org/2000/svg" xmlns:xlink="http://www.w3.org/1999/xlink" x="0px" y="0px"
	 viewBox="0 0 300 300" style="enable-background:new 0 0 300 300;" xml:space="preserve">
<style type="text/css">
	.st0{fill:#888888;}
</style>
<g>
	<path class="st0" d="M294.9,295L294.9,295L294.9,295l0.1-106.4c0-52-11.2-92.1-72-92.1c-29.2,0-48.9,16-56.9,31.3h-0.8v-26.4h-57.7
		V295h60.1v-95.9c0-25.2,4.8-49.6,36-49.6c30.8,0,31.3,28.8,31.3,51.3V295H294.9z M294.9,295"/>
	<rect x="9.8" y="101.4" class="st0" width="60.1" height="193.6"/>
	<path class="st0" d="M39.8,5C20.6,5,5,20.6,5,39.8C5,59,20.6,75,39.8,75C59,75,74.6,59,74.6,39.8C74.6,20.6,59,5,39.8,5L39.8,5z
		 M39.8,5"/>
</g>
</svg>
