<?xml version="1.0" encoding="utf-8"?>
<!-- Generator: Adobe Illustrator 25.0.0, SVG Export Plug-In . SVG Version: 6.00 Build 0)  -->
<svg version="1.1" id="Layer_1" xmlns="http://www.w3.org/2000/svg" xmlns:xlink="http://www.w3.org/1999/xlink" x="0px" y="0px"
	 viewBox="0 0 300 300" style="enable-background:new 0 0 300 300;" xml:space="preserve">
<style type="text/css">
	.st0{fill:#888888;}
</style>
<path class="st0" d="M265.2,90.9c11.8-8.4,21.7-18.8,29.8-30.9v0c-10.8,4.7-22.3,7.9-34.3,9.4c12.3-7.4,21.7-18.9,26.2-32.9
	c-11.5,6.9-24.2,11.7-37.7,14.4c-10.9-11.6-26.5-18.8-43.4-18.8c-32.9,0-59.4,26.7-59.4,59.5c0,4.7,0.4,9.2,1.4,13.6
	C98.3,102.8,54.6,79.1,25.2,43C20.1,51.9,17,62.1,17,73.1c0,20.6,10.6,38.8,26.4,49.4c-9.6-0.2-18.9-3-26.9-7.3v0.7
	c0,28.9,20.6,52.9,47.6,58.4c-4.8,1.3-10.1,2-15.6,2c-3.8,0-7.6-0.2-11.3-1c7.7,23.5,29.6,40.9,55.5,41.4
	c-20.2,15.8-45.9,25.3-73.7,25.3c-4.9,0-9.5-0.2-14.2-0.8c26.3,17,57.5,26.7,91.2,26.7C201.1,267.8,269.5,180.3,265.2,90.9
	L265.2,90.9z M265.2,90.9"/>
</svg>
